<?xml version="1.0" standalone="no"?>
<!DOCTYPE svg PUBLIC "-//W3C//DTD SVG 1.1//EN" "http://www.w3.org/Graphics/SVG/1.1/DTD/svg11.dtd" >
<svg xmlns="http://www.w3.org/2000/svg">
<metadata>
<json>
<![CDATA[
{
	"fontFamily": "KaliumIcons",
	"majorVersion": 1,
	"minorVersion": 0,
	"fontURL": "https://laborator.co/",
	"designer": "Laborator",
	"designerURL": "https://laborator.co/",
	"copyright": "Laborator Themes LLC",
	"description": "Icons designed for Kalium theme\nFont generated by IcoMoon.",
	"version": "Version 1.0",
	"fontId": "KaliumIcons",
	"psName": "KaliumIcons",
	"subFamily": "Regular",
	"fullName": "KaliumIcons"
}
]]>
</json>
</metadata>
<defs>
<font id="KaliumIcons" horiz-adv-x="1024">
<font-face units-per-em="1024" ascent="896" descent="-128" />
<missing-glyph horiz-adv-x="1024" />
<glyph unicode="&#x20;" horiz-adv-x="512" d="" />
<glyph unicode="&#xe900;" glyph-name="remove" data-tags="remove, delete, x" d="M169.344 726.656c5.794 5.808 13.805 9.401 22.656 9.401s16.862-3.593 22.655-9.401l297.345-297.409 297.344 297.408c5.798 5.798 13.808 9.384 22.656 9.384 17.695 0 32.040-14.345 32.040-32.040 0-8.848-3.586-16.858-9.384-22.656v0l-297.408-297.344 297.408-297.344c5.798-5.798 9.384-13.808 9.384-22.656 0-17.695-14.345-32.040-32.040-32.040-8.848 0-16.858 3.586-22.656 9.384v0l-297.344 297.408-297.344-297.408c-5.798-5.798-13.808-9.384-22.656-9.384-17.695 0-32.040 14.345-32.040 32.040 0 8.848 3.586 16.858 9.384 22.656v0l297.408 297.344-297.408 297.344c-5.808 5.794-9.401 13.805-9.401 22.656s3.593 16.862 9.401 22.655l0.001 0.001z" />
<glyph unicode="&#xe901;" glyph-name="plus" data-tags="plus, add" d="M512 816c26.51 0 48-21.49 48-48v0-336h336c26.51 0 48-21.49 48-48s-21.49-48-48-48v0h-336v-336c0-26.51-21.49-48-48-48s-48 21.49-48 48v0 336h-336c-26.51 0-48 21.49-48 48s21.49 48 48 48v0h336v336c0 26.51 21.49 48 48 48v0z" />
<glyph unicode="&#xe902;" glyph-name="minus" data-tags="minus, subtract" d="M944 384c0-26.51-21.49-48-48-48v0h-768c-26.51 0-48 21.49-48 48s21.49 48 48 48v0h768c26.51 0 48-21.49 48-48v0z" />
<glyph unicode="&#xe903;" glyph-name="star-empty" data-tags="star, outline, rating, favourite" d="M512 831.808v0c0.002 0 0.003 0 0.005 0 1.135 0 2.12-0.643 2.619-1.6l142.804-282.868c4.846-9.416 14.226-16.117 25.388-17.228l275.204-27.264c0.479-0.019 0.921-0.184 1.276-0.448l0.006-0.004c0.577-0.432 0.951-1.121 0.951-1.897 0-0.658-0.268-1.253-0.701-1.682l-226.178-224.13c-5.84-5.797-9.456-13.831-9.456-22.71 0-3.009 0.415-5.921 1.137-8.456l83.772-304.366c0.050-0.205 0.077-0.419 0.077-0.64 0-0.829-0.375-1.57-0.969-2.066l0.004 0.004c-0.466-0.388-1.065-0.621-1.719-0.621-0.449 0-0.872 0.11-1.23 0.298l-278.537 137.964c-4.326 2.182-9.215 3.411-14.391 3.411s-10.065-1.229-14.208-3.327l-278.322-137.849c-0.354-0.185-0.756-0.289-1.183-0.289-0.13 0-0.257 0.010-0.367 0.026l-0.013 0.001c-1.329 0.163-2.358 1.295-2.358 2.668 0 0.211 0.024 0.416 0.067 0.595l83.593 304.095c0.785 2.776 1.206 5.705 1.206 8.732 0 8.886-3.622 16.925-9.471 22.726l-226.304 224.128c-0.428 0.428-0.692 1.020-0.692 1.673 0 1.236 0.947 2.251 2.164 2.359l275.4 27.275c11.001 1.122 20.354 7.817 25.272 17.397l142.6 282.575c0.498 0.9 1.452 1.511 2.552 1.521zM543.104 844.8l28.48 14.592c-11.338 21.797-33.753 36.428-59.584 36.428s-48.246-14.63-59.408-36.057l-0.176-0.371-134.72-267.136-257.088-25.472c-34.074-3.076-60.572-31.501-60.572-66.114 0-18.445 7.524-35.132 19.671-47.16l0.005-0.005 212.992-210.88-78.912-286.784c-1.425-5.146-2.244-11.055-2.244-17.155 0-36.831 29.857-66.688 66.688-66.688 10.873 0 21.138 2.602 30.207 7.218l-0.379-0.175 0.128 0.064 263.808 130.688 264.32-130.88c8.685-4.434 18.943-7.033 29.809-7.033 36.831 0 66.688 29.857 66.688 66.688 0 6.073-0.812 11.957-2.333 17.548l0.108-0.467-78.912 286.784 212.8 210.944c12.152 12.033 19.676 28.721 19.676 47.166 0 34.614-26.498 63.038-60.315 66.096l-0.257 0.019-257.024 25.344-134.912 267.2-28.544-14.4z" />
<glyph unicode="&#xe904;" glyph-name="star-filled" data-tags="star, rating, favourite, filled" d="M546.944 886.016c10.496-6.4 19.008-15.68 24.64-26.624l0.064-0.192 134.848-267.136 257.088-25.472c34.074-3.076 60.572-31.501 60.572-66.114 0-18.413-7.498-35.074-19.608-47.098l-212.868-210.948 78.912-286.784c1.425-5.146 2.244-11.055 2.244-17.155 0-36.831-29.857-66.688-66.688-66.688-10.873 0-21.138 2.602-30.207 7.218l0.379-0.175-0.128 0.128-264.192 130.816-263.936-130.752c-8.685-4.434-18.943-7.033-29.809-7.033-36.831 0-66.688 29.857-66.688 66.688 0 6.073 0.812 11.957 2.333 17.548l-0.108-0.467 0.064 0.256 78.848 286.528-212.992 211.008c-12.113 12.027-19.612 28.689-19.612 47.102 0 34.613 26.498 63.038 60.315 66.096l0.257 0.019 257.024 25.472 134.784 267.136c11.338 21.798 33.753 36.429 59.584 36.429 12.9 0 24.947-3.649 35.167-9.97l-0.287 0.165z" />
<glyph unicode="&#xe905;" glyph-name="shopping-bag-empty" data-tags="basket, bag, cart, empty, sad, frown, mrrolq" d="M360.64 266.688c0-17.673-14.327-32-32-32s-32 14.327-32 32v0c0 17.673 14.327 32 32 32s32-14.327 32-32v0zM723.328 266.688c0-17.673-14.327-32-32-32s-32 14.327-32 32v0c0 17.673 14.327 32 32 32s32-14.327 32-32v0zM669.632 21.312c-0.002 0-0.005 0-0.008 0-7.357 0-13.843 3.727-17.672 9.397l-0.048 0.075c-12.653 18.813-28.355 34.515-46.563 46.784l-0.605 0.384c-26.631 18.031-59.469 28.786-94.819 28.786-58.938 0-110.893-29.894-141.531-75.346l-0.386-0.607c-3.879-5.748-10.368-9.478-17.728-9.478-11.774 0-21.318 9.545-21.318 21.318 0 4.414 1.341 8.514 3.638 11.916l-0.048-0.076c38.769 57.52 103.671 94.848 177.291 94.848 0.154 0 0.308 0 0.461 0h-0.024c0.076 0 0.165 0 0.255 0 73.475 0 138.242-37.283 176.416-93.962l0.481-0.758c3.2-4.8 4.352-10.496 3.2-16-1.127-5.726-4.438-10.524-9.011-13.584l-0.077-0.048c-3.324-2.284-7.435-3.648-11.865-3.648-0.014 0-0.027 0-0.041 0h0.002zM189.888-128c-58.88 0-106.688 47.872-106.688 106.688 0 14.656 0.512 29.504 1.472 44.096l38.4 554.688c2.516 35.038 31.551 62.512 67.006 62.528h106.626v42.688c0.146 117.773 95.598 213.203 213.366 213.312h0.010c117.75-0.146 213.166-95.561 213.312-213.298v-42.702h106.56c35.136 0 64.512-27.52 66.88-62.528l38.4-554.624c0.96-14.784 1.472-29.696 1.344-44.288 0-58.752-47.872-106.56-106.624-106.56h-640zM190.016 597.312c-12.8 0-23.488-9.984-24.32-22.784l-38.4-554.688c-0.96-13.632-1.408-27.52-1.408-41.152 0-35.346 28.654-64 64-64v0h640c35.264 0 64 28.672 64 64 0.007 1.010 0.010 2.205 0.010 3.4 0 13.306-0.468 26.504-1.39 39.576l0.099-1.759-38.4 554.624c-0.896 12.742-11.434 22.745-24.316 22.784h-106.564v-106.624c0-11.788-9.556-21.344-21.344-21.344s-21.344 9.556-21.344 21.344v0 106.624h-341.312v-106.624c0-11.788-9.556-21.344-21.344-21.344s-21.344 9.556-21.344 21.344v0 106.624h-106.56zM680.64 640v42.688c-0.145 94.152-76.413 170.442-170.542 170.624h-0.018c-94.202-0.109-170.542-76.427-170.688-170.61v-42.702h341.312z" />
<glyph unicode="&#xe906;" glyph-name="shopping-bag" data-tags="basket, bag, cart, shop" d="M288 576h-118.4c-40.648 0-73.6-32.952-73.6-73.6v-518.4c0-61.856 50.144-112 112-112h608c61.856 0 112 50.144 112 112v518.4c0 40.648-32.954 73.6-73.6 73.6h-118.4v96c0 57.742-26.714 113.457-66.72 154.372-40.102 41.013-95.99 69.628-157.28 69.628s-117.178-28.615-157.28-69.628c-40.005-40.915-66.72-96.63-66.72-154.372v-96zM352 672c0 38.258 18.085 78.543 48.48 109.628 30.298 30.987 70.41 50.372 111.52 50.372s81.222-19.385 111.52-50.372c30.394-31.085 48.48-71.37 48.48-109.628v-96h-320v96zM160 502.4c0 5.302 4.298 9.6 9.6 9.6h684.8c5.299 0 9.6-4.298 9.6-9.6v-518.4c0-26.509-21.491-48-48-48h-608c-26.509 0-48 21.491-48 48v518.4z" />
<glyph unicode="&#xe907;" glyph-name="shopping-cart" data-tags="basket, bag, cart, shop" d="M785.024 8.704c17.954 1.134 32.085 15.973 32.085 34.112s-14.132 32.978-31.986 34.107l-0.099 0.005h-451.52c-16.64 0-30.848 11.968-33.664 28.48l-18.368 108.032h508.928c0.053 0 0.116 0 0.179 0 79.514 0 146.31 54.451 165.133 128.1l0.256 1.18 65.92 263.936c1.317 4.998 2.073 10.735 2.073 16.649 0 12.954-3.627 25.061-9.922 35.361l0.169-0.298c-12.030 19.988-33.61 33.152-58.265 33.152-0.081 0-0.163 0-0.244 0h-755.507l-20.288 119.296c-8.415 48.65-50.304 85.184-100.726 85.184-0.071 0-0.142 0-0.213 0h-44.789c-18.857 0-34.144-15.287-34.144-34.144s15.287-34.144 34.144-34.144v0h44.736c0.012 0 0.027 0 0.042 0 16.805 0 30.771-12.151 33.592-28.147l0.030-0.205 120-705.408c8.36-48.676 50.251-85.248 100.683-85.248 0.086 0 0.172 0 0.259 0h451.507zM889.728 359.296c-11.428-44.894-51.495-77.568-99.193-77.568-0.025 0-0.050 0-0.074 0h-520.572l-58.112 341.504h743.872l-65.92-263.936zM648.512-76.672c0-28.277 22.923-51.2 51.2-51.2s51.2 22.923 51.2 51.2v0c0 28.277-22.923 51.2-51.2 51.2s-51.2-22.923-51.2-51.2v0zM307.2-76.672c0-28.277 22.923-51.2 51.2-51.2s51.2 22.923 51.2 51.2v0c0 28.277-22.923 51.2-51.2 51.2s-51.2-22.923-51.2-51.2v0z" />
<glyph unicode="&#xe908;" glyph-name="shopping-basket" data-tags="basket, bag, cart, shop" d="M96.32 569.6h831.36c53.613-1.94 96.339-45.87 96.339-99.779 0-8.939-1.175-17.603-3.378-25.847l0.159 0.698-97.536-410.56c-9.911-43.645-47.984-75.876-93.73-76.735l-0.094-0.001-0.576 32v-32h-634.304c-45.857 0.867-83.938 33.128-93.699 76.144l-0.125 0.656-97.536 410.496c-2.045 7.546-3.219 16.211-3.219 25.149 0 53.909 42.726 97.839 96.163 99.774l0.177 0.005zM828.48 21.376c15.833 0.396 28.944 11.582 32.277 26.462l0.043 0.226 0.128 0.64 97.92 411.968c0.751 2.739 1.182 5.883 1.182 9.128 0 19.197-15.092 34.868-34.059 35.797l-0.083 0.003h-827.776c-19.021-0.965-34.079-16.622-34.079-35.797 0-3.246 0.432-6.392 1.241-9.382l-0.058 0.251 0.192-0.832 97.792-411.84c3.35-15.098 16.441-26.286 32.213-26.687l0.043-0.001h633.088zM403.968 802.56c7.331-5.914 11.982-14.896 11.982-24.966 0-7.579-2.635-14.543-7.038-20.025l0.048 0.062-192-240c-5.885-8.044-15.29-13.21-25.903-13.21-17.673 0-32 14.327-32 32 0 8.122 3.026 15.538 8.012 21.181l-0.030-0.034 192 240c5.914 7.331 14.896 11.982 24.966 11.982 7.579 0 14.543-2.635 20.025-7.038l-0.062 0.048zM620.032 802.56c5.42 4.355 12.383 6.99 19.962 6.99 10.069 0 19.052-4.651 24.918-11.921l0.048-0.061 192-240c4.957-5.609 7.983-13.024 7.983-21.146 0-17.673-14.327-32-32-32-10.612 0-20.018 5.166-25.84 13.12l-0.063 0.090-192 240c-4.355 5.42-6.99 12.383-6.99 19.962 0 10.069 4.651 19.052 11.921 24.918l0.061 0.048z" />
<glyph unicode="&#xe909;" glyph-name="search" data-tags="search" d="M421.432 861.091c8.98 0.444 17.249 0.871 18.376 0.948 4.394 0.301 43.479-1.957 51.712-2.988 120.585-15.096 225.649-79.635 292.318-179.57 59.274-88.849 81.327-196.518 61.883-302.137-12.143-65.96-41.632-129.751-84.258-182.272l-6.649-8.192 114.978-115.2c128.392-128.641 119.619-118.824 119.619-133.843 0-9.288-3.159-16.455-10.053-22.81-6.672-6.15-12.465-8.439-21.358-8.439-14.829 0-5.183-8.631-133.681 119.619l-115.2 114.978-8.192-6.649c-58.995-47.88-130.098-78.245-205.824-87.897-31.687-4.039-71.779-4.038-103.424 0.002-128.116 16.358-239.584 91.264-304.695 204.751-21.871 38.118-39.794 88.558-46.939 132.096-13.051 79.51-3.72 157.77 27.529 230.912 40.642 95.124 118.901 173.384 214.025 214.025 45.289 19.35 92.193 30.306 139.832 32.666zM423.424 797.096c-2.253-0.223-9.165-0.888-15.36-1.479-115.504-11-220.187-83.216-272.802-188.195-19.025-37.959-30.026-75.418-35.090-119.486-1.667-14.506-1.669-56.125-0.003-70.656 6.008-52.401 21.357-98.282 47.702-142.589 27.652-46.505 71.079-89.932 117.598-117.599 44.248-26.316 88.598-41.216 142.083-47.734 23.382-2.85 64.671-1.554 92.16 2.893 44.413 7.183 90.661 24.85 128.67 49.151 82.875 52.987 139.887 139.178 155.367 234.886 4.447 27.489 5.743 68.778 2.893 92.16-6.518 53.485-21.412 97.818-47.733 142.083-27.626 46.462-71.134 89.969-117.6 117.598-43.284 25.737-87.843 40.94-137.981 47.074-12.275 1.501-51.369 2.736-59.904 1.892z" />
<glyph unicode="&#xe90a;" glyph-name="my-account" data-tags="my-account" d="M512-64c247.424 0 448 200.576 448 448s-200.576 448-448 448v0c-247.424 0-448-200.576-448-448s200.576-448 448-448v0zM1024 384c0-282.77-229.23-512-512-512s-512 229.23-512 512v0c0 282.77 229.23 512 512 512s512-229.23 512-512v0zM320.96 519.744c30.528 122.24 140.352 152.256 191.040 152.256s160.512-30.016 191.040-152.256c35.584-142.336-35.392-249.344-72.384-286.4-0.512-0.448-3.072-3.776-3.712-13.184-0.64-8.96 0.64-20.16 3.84-31.36 3.2-11.328 7.744-20.608 11.968-26.304 0.896-1.28 1.664-2.112 2.24-2.752 6.72-0.64 13.184-2.496 18.176-4.096 7.040-2.24 14.784-5.312 22.848-8.768 16.064-6.976 35.072-16.384 54.4-26.56 48.297-25.386 83.624-45.594 118.355-66.686l-10.323 5.822 30.464-18.304-21.312-28.352c-38.080-50.816-156.416-140.8-345.6-140.8s-307.52 89.984-345.6 140.8l-21.312 28.416 30.464 18.24c27.008 16.192 69.12 40.512 107.968 60.864 19.392 10.176 38.4 19.584 54.464 26.56 5.755 2.659 13.317 5.628 21.043 8.239l1.805 0.529c4.992 1.6 11.456 3.456 18.176 4.096 0.753 0.829 1.487 1.725 2.175 2.659l0.065 0.093c5.162 7.52 9.264 16.259 11.827 25.634l0.141 0.606c3.2 11.264 4.48 22.4 3.84 31.36-0.64 9.472-3.2 12.8-3.712 13.248-36.992 37.12-107.968 144-72.384 286.4zM512 608c-34.624 0-108.288-21.184-128.96-103.744-28.416-113.664 28.608-198.656 55.616-225.6 15.488-15.552 20.928-36.224 22.272-53.76 0.165-2.71 0.259-5.878 0.259-9.068 0-15.905-2.34-31.264-6.693-45.751l0.29 1.124c-4.942-17.803-12.486-33.364-22.325-47.177l0.309 0.457c-8.448-11.456-24.448-27.968-47.744-28.48-1.798-0.34-3.366-0.783-4.874-1.346l0.202 0.066c-7.103-2.382-12.713-4.613-18.188-7.089l1.228 0.497c-13.952-6.016-31.36-14.656-50.112-24.448-23.488-12.352-48.384-26.24-70.144-38.784 44.544-38.208 134.72-88.896 268.864-88.896s224.32 50.688 268.864 88.96c-21.76 12.48-46.72 26.368-70.144 38.72-11.965 6.669-28.417 14.845-45.183 22.448l-4.929 2c-4.249 1.98-9.859 4.211-15.59 6.182l-1.37 0.41c-1.306 0.497-2.874 0.94-4.488 1.251l-0.184 0.029c-23.296 0.512-39.296 17.024-47.744 28.544-9.528 13.356-17.071 28.918-21.765 45.67l-0.251 1.050c-4.070 13.303-6.414 28.594-6.414 44.433 0 3.236 0.098 6.45 0.291 9.638l-0.021-0.438c1.28 17.536 6.784 38.208 22.272 53.76 27.008 26.88 84.032 112 55.616 225.6-20.672 82.56-94.4 103.744-128.96 103.744z" />
<glyph unicode="&#xe90b;" glyph-name="home" data-tags="home, house, dashboard" d="M73.728-127.872c-40.601 0.18-73.475 33.009-73.728 73.576v534.424c1.019 23.871 11.924 45.008 28.697 59.56l0.103 0.088 463.808 349.888c5.295 4.011 11.992 6.424 19.254 6.424 7.299 0 14.028-2.439 19.417-6.545l-0.078 0.057 463.936-349.888c16.578-14.162 27.417-34.621 28.789-57.63l0.011-0.226 0.064-536.064c-0.216-40.587-33.024-73.439-73.572-73.728h-876.764zM68.928 489.92c-2.862-3.064-4.695-7.122-4.926-11.603l-0.002-0.045v-532.416c0-5.312 4.48-9.728 9.792-9.728h876.48c5.312 0 9.728 4.48 9.728 9.792v534.208c-0.6 3.854-2.37 7.216-4.929 9.793l0.001-0.001-443.072 334.080-443.072-334.080z" />
<glyph unicode="&#xe90c;" glyph-name="list" data-tags="list, orders" d="M87.040 758.272c-25.893-7.105-45.666-27.645-51.555-53.469l-0.093-0.483c-0.974-4.391-1.533-9.435-1.533-14.609 0-22.498 10.553-42.531 26.98-55.419l0.153-0.116c12.8-10.304 26.24-14.848 43.904-14.72 17.664 0 31.296 4.864 44.48 15.744 10.56 8.832 19.392 21.888 23.104 34.496 2.56 8.768 3.2 23.552 1.28 33.792-5.764 26.705-25.749 47.608-51.464 54.603l-0.504 0.117c-5.224 0.911-11.239 1.432-17.376 1.432s-12.152-0.521-18.004-1.521l0.628 0.089zM328.96 723.84c-8.070-3.828-14.615-9.756-19.090-17.085l-0.11-0.195c-2.408-4.933-3.816-10.734-3.816-16.864s1.408-11.931 3.918-17.097l-0.102 0.233c3.328-6.656 12.48-14.72 19.52-17.408l5.696-2.112 628.096 0.512 5.824 2.752c7.001 3.669 12.714 8.951 16.791 15.374l0.105 0.178c2.472 5.124 4.063 11.104 4.411 17.415l0.005 0.121c-0.373 6.438-1.986 12.415-4.602 17.816l0.122-0.28c-4.265 6.61-10.007 11.922-16.782 15.561l-0.242 0.119-5.632 2.624-314.368 0.192c-313.088 0.192-314.368 0.192-319.744-1.856zM102.848 690.816c-0.768-1.984 0.256-3.712 2.24-3.712 1.024 0 1.408 0.768 1.28 2.24-0.448 2.688-2.688 3.648-3.52 1.472zM91.456 453.568c-25.479-5.247-45.769-23.329-54.054-47.045l-0.154-0.507c-2.56-7.36-2.816-9.6-2.88-22.016 0-12.8 0.256-14.464 3.136-22.656 7.424-21.12 23.68-37.184 44.928-44.544 7.232-2.496 9.728-2.816 21.504-2.88 1.293-0.103 2.799-0.162 4.318-0.162 5.948 0 11.685 0.901 17.082 2.575l-0.408-0.109c21.248 6.592 39.808 24.64 46.72 45.568 2.56 7.488 2.816 9.92 2.816 22.208s-0.32 14.72-2.816 22.208c-7.754 21.482-24.56 38.036-45.688 45.285l-0.52 0.155c-6.681 1.677-14.35 2.64-22.245 2.64-4.115 0-8.17-0.262-12.147-0.769l0.472 0.049zM333.312 419.456c-7.060-1.587-13.078-5.315-17.5-10.454l-0.036-0.042c-6.215-6.492-10.042-15.316-10.042-25.033 0-8.259 2.764-15.873 7.418-21.966l-0.064 0.088c4.48-5.76 11.904-11.264 17.984-13.12 3.392-1.024 67.84-1.28 317.632-1.28h313.344l5.824 2.752c8.259 3.923 14.787 10.369 18.713 18.329l0.103 0.231c1.913 3.72 3.034 8.117 3.034 12.776 0 0.797-0.033 1.586-0.097 2.366l0.007-0.102c0.060 0.694 0.095 1.503 0.095 2.319 0 4.663-1.123 9.063-3.113 12.945l0.075-0.16c-4.029 8.191-10.557 14.637-18.577 18.458l-0.239 0.102-5.824 2.688-311.808 0.192c-245.248 0.128-312.96-0.128-316.928-1.088zM102.4 384c0-1.344 0.64-2.048 2.048-2.048 1.344 0 2.048 0.64 2.048 2.048 0 1.344-0.64 2.048-2.048 2.048-1.344 0-2.048-0.64-2.048-2.048zM96.64 148.352c-19.524-1.819-36.421-11.743-47.495-26.33l-0.121-0.166c-12.928-16.064-17.92-37.312-13.632-58.176 5.44-26.176 26.304-47.616 52.672-54.080 7.552-1.856 25.6-1.728 33.728 0.192 25.28 5.952 47.040 28.864 51.904 54.72 1.92 10.24 1.408 24.96-1.216 33.792-4.869 14.47-13.426 26.62-24.566 35.73l-0.138 0.11c-11.681 9.171-26.595 14.709-42.802 14.709-2.937 0-5.832-0.182-8.673-0.535l0.34 0.034zM328.96 112.512c-8.070-3.828-14.615-9.756-19.090-17.085l-0.11-0.195c-2.408-4.933-3.816-10.734-3.816-16.864s1.408-11.931 3.918-17.097l-0.102 0.233c3.328-6.656 12.48-14.72 19.52-17.408l5.696-2.112 628.096 0.512 5.632 2.624c7.042 3.75 12.807 9.063 16.981 15.503l0.107 0.177c2.474 5.124 4.065 11.104 4.411 17.416l0.005 0.12c-0.353 6.432-1.944 12.412-4.538 17.819l0.122-0.283c-4.182 6.601-9.895 11.883-16.657 15.438l-0.239 0.114-5.824 2.752-314.368 0.192c-313.088 0.192-314.368 0.192-319.744-1.856zM102.592 78.656c0.192-1.28 1.024-2.368 1.856-2.368 2.24 0 1.92 3.968-0.32 4.48-1.472 0.256-1.792-0.256-1.536-2.112z" />
<glyph unicode="&#xe90d;" glyph-name="folder-downloads" data-tags="downloads, folder" d="M512 192c-3.977 0.010-7.781 0.737-11.295 2.057l0.223-0.073-0.896 0.384c-4.145 1.678-7.68 4.063-10.621 7.037l-192.003 192.003c-5.848 5.751-9.471 13.748-9.471 22.592s3.624 16.841 9.467 22.588l0.004 0.004c5.754 5.867 13.764 9.504 22.624 9.504s16.87-3.637 22.619-9.499l137.413-137.349v434.752c0 17.673 14.327 32 32 32s32-14.327 32-32v0-434.752l137.344 137.408c5.762 5.851 13.769 9.477 22.624 9.477s16.862-3.625 22.62-9.473l0.004-0.004c5.867-5.754 9.504-13.764 9.504-22.624s-3.637-16.87-9.499-22.619l-192.005-192.005c-2.933-2.907-6.417-5.263-10.282-6.896l-0.214-0.080-1.088-0.448c-3.243-1.256-6.997-1.984-10.92-1.984-0.053 0-0.107 0-0.16 0h0.008zM160 0c-88.321 0.109-159.891 71.678-160 159.989v64.011c0 17.673 14.327 32 32 32s32-14.327 32-32v0-64c0-52.928 43.072-96 96-96h704c52.992 0 96 43.072 96 96v64c0 17.673 14.327 32 32 32s32-14.327 32-32v0-64c0-88.256-71.68-160-160-160h-704z" />
<glyph unicode="&#xe90e;" glyph-name="folder-empty" data-tags="folder, empty, categories" d="M28.16 803.84c17.357 17.378 41.34 28.136 67.835 28.16h192.005c53.019 0 96-42.981 96-96v0-32h416c53.019 0 96-42.981 96-96v0-96h32c53.017-0.050 95.977-43.040 95.977-96.064 0-8.622-1.136-16.978-3.266-24.928l0.153 0.672-93.952-384.384c-11.285-41.378-48.532-71.296-92.767-71.296-0.012 0-0.023 0-0.035 0h-729.726c-3.407 0.004-6.686 0.542-9.762 1.535l0.226-0.063c-52.932 5.056-94.101 48.933-94.847 102.581l-0.001 0.075v695.872c0 25.472 10.112 49.92 28.16 67.84zM200.384 0h633.664c0.019 0 0.042 0 0.065 0 14.644 0 26.99 9.836 30.793 23.263l0.055 0.226 93.888 384.256c0.688 2.476 1.083 5.32 1.083 8.256 0 17.649-14.288 31.961-31.928 32h-591.812c-14.314-0.002-26.442-9.365-30.593-22.301l-0.063-0.227-100.096-411.2c-1.532-5.624-3.235-10.368-5.256-14.941l0.264 0.669zM832 512v96c0 17.673-14.327 32-32 32v0h-448c-17.673 0-32 14.327-32 32v0 64c0 17.673-14.327 32-32 32v0h-192c-17.673 0-32-14.327-32-32v0-695.232c0.658-21.895 18.565-39.395 40.559-39.395 18.174 0 33.558 11.949 38.723 28.419l0.078 0.287 100.224 411.392c11.549 40.987 48.604 70.528 92.559 70.528 0.017 0 0.035 0 0.052 0h495.805z" />
<glyph unicode="&#xe90f;" glyph-name="map-pin" data-tags="map, pin, address" d="M512 672c-53.019 0-96-42.981-96-96s42.981-96 96-96v0c53.019 0 96 42.981 96 96s-42.981 96-96 96v0zM352 576c0 88.366 71.634 160 160 160s160-71.634 160-160v0c0-88.366-71.634-160-160-160s-160 71.634-160 160v0zM512 832c-141.385 0-256-114.615-256-256v0c0-27.84 11.456-68.224 32.512-117.248 20.608-48.128 49.024-101.056 79.552-152.704 52.518-87.714 100.031-159.37 150.304-228.9l-6.368 9.252c32.64 45.632 90.944 129.92 144 219.648 30.464 51.648 58.88 104.576 79.488 152.704 21.12 49.024 32.512 89.408 32.512 117.248 0 141.385-114.615 256-256 256v0zM285.696 802.304c57.911 57.926 137.924 93.756 226.304 93.756 176.731 0 320-143.269 320-320 0-0.021 0-0.042 0-0.062v0.003c0-41.536-16-91.904-37.696-142.528-22.144-51.584-52.032-107.072-83.2-160-57.616-96.018-110.51-175.171-166.662-251.787l6.406 9.163-0.064-0.128c-8.846-11.986-22.917-19.675-38.784-19.675s-29.938 7.689-38.691 19.543l-0.093 0.131-0.064 0.128c-49.724 67.447-102.596 146.6-152.006 228.085l-8.186 14.539c-31.232 52.928-61.12 108.416-83.264 160-21.76 50.56-37.696 101.056-37.696 142.528 0 0.018 0 0.039 0 0.060 0 88.351 35.805 168.339 93.696 226.245v0zM735.68 143.424c3.015 14.793 15.92 25.767 31.387 25.767 2.21 0 4.367-0.224 6.451-0.651l-0.206 0.035c59.84-11.84 111.488-27.968 149.056-48 18.752-10.048 35.456-21.76 47.808-35.712 12.544-14.080 21.824-32 21.824-52.864 0-33.92-23.808-59.136-49.28-76.352-26.624-17.92-63.040-32.896-105.152-44.928-84.608-24.192-199.68-38.72-325.568-38.72-125.824 0-240.96 14.528-325.568 38.72-42.112 12.032-78.528 26.944-105.152 44.928-25.472 17.28-49.28 42.432-49.28 76.352 0 20.864 9.216 38.656 21.76 52.736 12.288 13.952 28.928 25.664 47.616 35.648 37.44 20.032 88.832 36.224 148.352 48.064 2.208 0.544 4.744 0.856 7.352 0.856 17.673 0 32-14.327 32-32 0-15.839-11.508-28.991-26.619-31.55l-0.188-0.026c-56.512-11.264-101.12-25.856-130.688-41.728-11.571-5.764-21.464-13.020-29.933-21.676l-0.019-0.020c-5.376-6.080-5.632-9.408-5.632-10.304 0-1.408 1.28-9.92 21.12-23.296 18.688-12.672 47.936-25.28 86.848-36.48 77.504-22.016 186.432-36.224 308.032-36.224s230.528 14.080 308.032 36.288c38.912 11.136 68.096 23.744 86.848 36.416 19.84 13.44 21.12 21.888 21.12 23.296 0 0.896-0.256 4.224-5.696 10.368-8.523 8.704-18.459 15.983-29.445 21.473l-0.635 0.287c-29.76 15.808-74.56 30.464-131.328 41.728-14.787 3.020-25.755 15.921-25.755 31.385 0 2.188 0.22 4.324 0.638 6.389l-0.035-0.205z" />
<glyph unicode="&#xe910;" glyph-name="logout" data-tags="logout" d="M832 191.808c-17.609 0.177-31.815 14.493-31.815 32.126 0 8.779 3.521 16.735 9.227 22.534l105.34 105.404h-594.816c-17.673 0-32 14.327-32 32s14.327 32 32 32v0h594.752l-105.408 105.408c-5.848 5.751-9.471 13.748-9.471 22.592s3.624 16.841 9.467 22.588l0.004 0.004c5.783 5.804 13.784 9.396 22.624 9.396s16.841-3.591 22.623-9.395l160.001-160.001c1.459-1.457 2.785-3.047 3.958-4.751l0.074-0.113 0.896-1.6c0.639-1.032 1.281-2.251 1.841-3.513l0.079-0.199c0.32-0.64 0.64-1.92 0.896-2.56 1.057-2.993 1.668-6.444 1.668-10.037 0-8.050-3.064-15.384-8.090-20.899l0.022 0.025c-0.381-0.589-0.826-1.095-1.334-1.528l-0.010-0.008-160-160c-5.722-5.847-13.694-9.472-22.512-9.472-0.028 0-0.056 0-0.084 0h0.004zM89.28-96c-49.864 2.486-89.353 43.521-89.353 93.778 0 1.299 0.026 2.592 0.079 3.878l-0.006-0.184v766.528c-2.432 49.984 37.248 93.44 88.448 96h525.312c50.28-2.118 90.24-43.393 90.24-94.002 0-1.22-0.023-2.435-0.069-3.645l0.005 0.174v-190.528c0-17.673-14.327-32-32-32s-32 14.327-32 32v0 192c0.048 0.635 0.075 1.375 0.075 2.122 0 15.803-12.238 28.747-27.754 29.873l-0.097 0.006h-522.048c-14.528-0.768-26.88-14.72-26.24-30.528l0.128-769.472c-0.048-0.635-0.075-1.375-0.075-2.122 0-15.803 12.238-28.747 27.754-29.873l0.097-0.006h521.984c14.528 0.768 26.944 14.72 26.24 30.528v193.472c0 17.673 14.327 32 32 32s32-14.327 32-32v0-192c2.24-50.048-37.504-93.44-88.64-96h-526.080z" />
<glyph unicode="&#xe911;" glyph-name="login" data-tags="login" d="M480 191.808c-0.037 0-0.082 0-0.126 0-8.812 0-16.784 3.598-22.527 9.405l-160.003 160.003c-4.425 4.268-7.55 9.857-8.738 16.131l-0.030 0.189c-0.418 1.91-0.657 4.104-0.657 6.354 0 6.034 1.722 11.667 4.701 16.432l-0.076-0.13 0.896 1.472c1.181 1.801 2.446 3.37 3.846 4.807l-0.006-0.007 160 160c5.765 5.871 13.785 9.509 22.656 9.509s16.891-3.638 22.651-9.504l0.005-0.005c5.867-5.754 9.504-13.764 9.504-22.624s-3.637-16.87-9.499-22.619l-105.413-105.413h594.752c17.673 0 32-14.327 32-32s-14.327-32-32-32v0h-594.752l105.408-105.344c5.755-5.794 9.311-13.778 9.311-22.592 0-17.674-14.3-32.009-31.962-32.064h-0.005zM89.28-96c-49.864 2.486-89.353 43.521-89.353 93.778 0 1.299 0.026 2.592 0.079 3.878l-0.006-0.184v766.528c-2.432 49.984 37.248 93.44 88.448 96h525.312c50.28-2.118 90.24-43.393 90.24-94.002 0-1.22-0.023-2.435-0.069-3.645l0.005 0.174v-190.528c0-17.673-14.327-32-32-32s-32 14.327-32 32v0 192c0.048 0.635 0.075 1.375 0.075 2.122 0 15.803-12.238 28.747-27.754 29.873l-0.097 0.006h-522.048c-14.528-0.768-26.88-14.72-26.24-30.528l0.128-769.472c-0.048-0.635-0.075-1.375-0.075-2.122 0-15.803 12.238-28.747 27.754-29.873l0.097-0.006h521.984c14.528 0.768 26.944 14.72 26.24 30.528v193.472c0 17.673 14.327 32 32 32s32-14.327 32-32v0-192c2.24-50.048-37.504-93.44-88.64-96h-526.080z" />
<glyph unicode="&#xe912;" glyph-name="refresh" data-tags="refresh, reload, arrows, update, load more" d="M157.568 236.16c-18.559 43.508-29.348 94.124-29.348 147.261 0 212.148 171.98 384.128 384.128 384.128 78.8 0 152.058-23.728 213.020-64.428l-1.399 0.879h-115.968c-17.673 0-32-14.327-32-32s14.327-32 32-32v0h192c17.673 0 32 14.327 32 32v0 9.216c0.080 0.863 0.126 1.866 0.126 2.88s-0.046 2.017-0.135 3.008l0.009-0.128v177.024c0 17.673-14.327 32-32 32s-32-14.327-32-32v0-112.448c-71.336 50.093-159.978 80.054-255.617 80.054-247.494 0-448.128-200.634-448.128-448.128 0-62.051 12.612-121.157 35.412-174.894l-1.107 2.936c5.114-11.277 16.273-18.979 29.231-18.979 17.673 0 32 14.327 32 32 0 4.157-0.793 8.128-2.235 11.772l0.076-0.217zM255.936 16.384v-112.384c0-17.673-14.327-32-32-32s-32 14.327-32 32v0 177.088c-0.082 0.863-0.129 1.866-0.129 2.88s0.047 2.017 0.138 3.007l-0.009-0.127v9.152c0 17.673 14.327 32 32 32v0h192c17.673 0 32-14.327 32-32s-14.327-32-32-32v0h-116.224c59.733-40.167 133.285-64.11 212.43-64.11 212.077 0 384 171.923 384 384 0 53.4-10.9 104.254-30.597 150.459l0.951-2.509c-1.896 3.966-3.003 8.621-3.003 13.534 0 17.673 14.327 32 32 32 13.685 0 25.364-8.591 29.938-20.674l0.073-0.22c21.783-50.891 34.448-110.111 34.448-172.288 0-247.459-200.605-448.064-448.064-448.064-95.758 0-184.5 30.039-257.316 81.208l1.428-0.952z" />
<glyph unicode="&#xe913;" glyph-name="coupon-cut" data-tags="coupon, scissors, cut" d="M192 192c-70.692 0-128-57.308-128-128s57.308-128 128-128v0c70.692 0 128 57.308 128 128s-57.308 128-128 128v0zM0 64c0 106.039 85.961 192 192 192s192-85.961 192-192v0c0-106.039-85.961-192-192-192s-192 85.961-192 192v0zM192 832c-70.692 0-128-57.308-128-128s57.308-128 128-128v0c70.692 0 128 57.308 128 128s-57.308 128-128 128v0zM0 704c0 106.039 85.961 192 192 192s192-85.961 192-192v0c0-106.039-85.961-192-192-192s-192 85.961-192 192v0zM95.616 576.256c5.71 9.295 15.821 15.4 27.358 15.4 6.14 0 11.877-1.729 16.749-4.728l-0.139 0.079 431.552-262.016c9.285-5.717 15.383-15.826 15.383-27.36 0-17.686-14.337-32.023-32.023-32.023-6.152 0-11.899 1.735-16.778 4.742l0.138-0.079-431.424 262.016c-9.295 5.71-15.4 15.821-15.4 27.358 0 6.14 1.729 11.877 4.728 16.749l-0.079-0.139zM1019.392 752.64c2.908-4.727 4.631-10.453 4.631-16.582 0-11.556-6.126-21.682-15.307-27.307l-0.14-0.080-868.992-527.616c-4.632-2.76-10.215-4.392-16.179-4.392-17.673 0-32 14.327-32 32 0 11.33 5.888 21.285 14.771 26.971l0.128 0.077 869.12 527.616c4.733 2.919 10.47 4.648 16.61 4.648 11.537 0 21.648-6.105 27.279-15.262l0.079-0.139zM896 160c0 17.673 14.327 32 32 32v0h64c17.673 0 32-14.327 32-32s-14.327-32-32-32v0h-64c-17.673 0-32 14.327-32 32v0zM704 160c0 17.673 14.327 32 32 32v0h64c17.673 0 32-14.327 32-32s-14.327-32-32-32v0h-64c-17.673 0-32 14.327-32 32v0zM512 160c0 17.673 14.327 32 32 32v0h64c17.673 0 32-14.327 32-32s-14.327-32-32-32v0h-64c-17.673 0-32 14.327-32 32v0z" />
<glyph unicode="&#xe914;" glyph-name="blog-post-default" data-tags="blog post, default, text file, post" d="M96 832.064c-17.673 0-32-14.327-32-32v0-832c0-17.673 14.327-32 32-32v0h832c17.673 0 32 14.327 32 32v0 832c0 17.673-14.327 32-32 32v0h-832zM0 800.064c0 53.019 42.981 96 96 96v0h832c53.019 0 96-42.981 96-96v0-832c0-53.019-42.981-96-96-96v0h-832c-53.019 0-96 42.981-96 96v0 832zM320 672.064c0 17.673 14.327 32 32 32v0h128c17.673 0 32-14.327 32-32s-14.327-32-32-32v0h-128c-17.673 0-32 14.327-32 32v0zM192 480.064c0 17.673 14.327 32 32 32v0h256c17.673 0 32-14.327 32-32s-14.327-32-32-32v0h-256c-17.673 0-32 14.327-32 32v0zM192 288.064c0 17.673 14.327 32 32 32v0h576c17.673 0 32-14.327 32-32s-14.327-32-32-32v0h-576c-17.673 0-32 14.327-32 32v0zM192 96.064c0 17.673 14.327 32 32 32v0h448c17.673 0 32-14.327 32-32s-14.327-32-32-32v0h-448c-17.673 0-32 14.327-32 32v0zM576 672.064c0 17.673 14.327 32 32 32v0h192c17.673 0 32-14.327 32-32v0-256c0-17.673-14.327-32-32-32v0h-192c-17.673 0-32 14.327-32 32v0 256zM640 640.064v-192h128v192h-128z" />
<glyph unicode="&#xe915;" glyph-name="arrow-down" data-tags="arrow, down" d="M29.952 671.232c11.343 10.404 26.527 16.78 43.201 16.78 18.679 0 35.489-8.002 47.188-20.765l0.043-0.048 391.616-428.352 391.68 428.352c11.79 13.407 28.98 21.822 48.136 21.822 35.346 0 64-28.654 64-64 0-17.165-6.758-32.752-17.758-44.246l0.022 0.024-415.232-454.080c-17.614-19.216-42.829-31.219-70.848-31.219s-53.234 12.003-70.784 31.148l-0.064 0.071-415.232 454.080c-10.404 11.343-16.78 26.527-16.78 43.201 0 18.679 8.002 35.489 20.765 47.188l0.048 0.043z" />
<glyph unicode="&#xe916;" glyph-name="alert-warning" data-tags="warning, alert" d="M1013.824 17.6l-426.496 810.368c-14.584 27.338-42.916 45.627-75.52 45.627s-60.936-18.29-75.296-45.169l-0.224-0.459-426.432-810.368c-6.418-11.695-10.194-25.627-10.194-40.44 0-16.613 4.749-32.117 12.963-45.229l-0.209 0.357c15.368-24.003 41.895-39.684 72.085-39.684 0.308 0 0.615 0.002 0.922 0.005h852.817c47.105 0.062 85.268 38.262 85.268 85.376 0 14.484-3.607 28.126-9.972 40.077l0.224-0.46zM469.184 532.416c0 23.558 19.098 42.656 42.656 42.656s42.656-19.098 42.656-42.656v0-256c0-23.558-19.098-42.656-42.656-42.656s-42.656 19.098-42.656 42.656v0 256zM513.984 41.92c-35.010 0.185-63.487 27.901-64.892 62.592l-0.004 0.128c-0.026 0.672-0.040 1.461-0.040 2.254 0 34.851 28.253 63.104 63.104 63.104 17.439 0 33.226-7.074 44.648-18.509l0.001-0.001c12.096-11.648 19.2-27.52 19.84-44.352 0.023-0.63 0.035-1.37 0.035-2.113 0-34.742-28.047-62.933-62.733-63.167h-0.022z" />
<glyph unicode="&#xe917;" glyph-name="alert-error" data-tags="alert, error, danger" d="M512 895.936c-142.627-2.319-271.003-61.462-363.84-155.711l-0.064-0.065c-91.498-91.496-148.091-217.898-148.091-357.517 0-2.718 0.021-5.431 0.064-8.139l-0.005 0.409c0-0.114 0-0.25 0-0.385 0-277.609 225.047-502.656 502.656-502.656 0.293 0 0.585 0 0.878 0.001h8.402c283.349 2.67 512.017 232.988 512.017 516.714 0 1.493-0.006 2.984-0.019 4.474l0.002-0.229c0.001 0.295 0.001 0.644 0.001 0.993 0 277.326-224.818 502.144-502.144 502.144-3.466 0-6.924-0.035-10.373-0.105l0.516 0.008zM448 190.208c-0.033 0.766-0.052 1.664-0.052 2.566 0 34.887 28.281 63.168 63.168 63.168 0.311 0 0.621-0.002 0.931-0.007l-0.047 0.001c35.838-0.282 64.782-29.4 64.782-65.278 0-7.992-1.436-15.648-4.064-22.725l0.147 0.452c-9.225-23.881-31.999-40.512-58.657-40.512-0.011 0-0.022 0-0.033 0h0.002c-0.267-0.004-0.582-0.006-0.898-0.006-35.020 0-63.599 27.576-65.209 62.197l-0.005 0.145zM469.376 360.896v256c0 23.576 19.112 42.688 42.688 42.688s42.688-19.112 42.688-42.688v0-256c0-23.576-19.112-42.688-42.688-42.688s-42.688 19.112-42.688 42.688v0z" />
<glyph unicode="&#xe918;" glyph-name="alert-info" data-tags="alert, info" d="M512 896c-282.77 0-512-229.23-512-512s229.23-512 512-512v0c282.77 0 512 229.23 512 512s-229.23 512-512 512v0zM522.688 682.688c35.346 0 64-28.654 64-64s-28.654-64-64-64v0c-35.346 0-64 28.654-64 64s28.654 64 64 64v0zM618.688 106.688h-170.688c-0.493-0.020-1.071-0.032-1.653-0.032-23.576 0-42.688 19.112-42.688 42.688s19.112 42.688 42.688 42.688c0.581 0 1.16-0.012 1.735-0.035l-0.083 0.003h32c5.903 0 10.688 4.785 10.688 10.688v0 192c-0.036 5.875-4.807 10.624-10.688 10.624 0 0 0 0 0 0h-32c-23.576 0-42.688 19.112-42.688 42.688s19.112 42.688 42.688 42.688h42.688c47.117 0 85.312-38.195 85.312-85.312 0-0.023 0-0.045 0-0.068v0.004-202.624c0-5.903 4.785-10.688 10.688-10.688v0h32c23.558 0 42.656-19.098 42.656-42.656s-19.098-42.656-42.656-42.656v0z" />
<glyph unicode="&#xe919;" glyph-name="alert-success" data-tags="alert, success, done, tick" d="M512 896c-282.77 0-512-229.23-512-512s229.23-512 512-512v0c282.77 0 512 229.23 512 512s-229.23 512-512 512v0zM807.68 546.112l-292.288-396.352c-7.859-10.613-20.337-17.418-34.405-17.418-10.091 0-19.364 3.501-26.671 9.356l0.084-0.065-208.64 166.848c-9.753 7.889-15.937 19.855-15.937 33.266 0 10.229 3.598 19.619 9.598 26.971l-0.061-0.077c7.887 9.517 19.71 15.534 32.938 15.534 10.003 0 19.202-3.44 26.479-9.202l-0.089 0.068 174.080-139.072 266.24 361.344c7.851 10.539 20.276 17.291 34.279 17.291 15.411 0 28.912-8.179 36.399-20.432l0.106-0.187c3.978-6.365 6.336-14.097 6.336-22.379 0-9.606-3.173-18.47-8.527-25.603l0.079 0.11z" />
<glyph unicode="&#xe91a;" glyph-name="blog-post-blockquote" data-tags="blockquote, quotation, citation" d="M96 832c-17.673 0-32-14.327-32-32v0-640c0-17.673 14.327-32 32-32v0h128c17.673 0 32-14.327 32-32v0-128l204.8 153.6c5.281 3.996 11.96 6.4 19.2 6.4h448c17.673 0 32 14.327 32 32v0 640c0 17.673-14.327 32-32 32v0h-832zM28.16 867.84c17.357 17.378 41.34 28.136 67.835 28.16h832.005c53.019 0 96-42.981 96-96v0-640c0-53.019-42.981-96-96-96v0h-437.312l-247.488-185.6c-5.281-3.996-11.96-6.4-19.2-6.4-17.673 0-32 14.327-32 32v0 160h-96c-53.019 0-96 42.981-96 96v0 640c0 25.472 10.112 49.92 28.16 67.84zM579.584 578.816c1.694 16.229 15.301 28.772 31.837 28.772 1.139 0 2.265-0.060 3.374-0.176l-0.138 0.012c37.248-3.84 63.040-26.048 78.528-51.84 13.492-23.059 21.458-50.772 21.458-80.346 0-0.846-0.007-1.69-0.020-2.533l0.002 0.127c-2.97-56.853-36.954-105.118-85.242-128.439l-0.902-0.393c-4.194-2.16-9.152-3.426-14.406-3.426-17.673 0-32 14.327-32 32 0 12.947 7.689 24.098 18.75 29.136l0.2 0.082c28.092 13.571 47.557 41.035 49.524 73.227l0.012 0.245c0 0.015 0 0.033 0 0.051 0 17.372-4.557 33.68-12.54 47.793l0.252-0.484c-7.68 12.8-17.536 19.84-30.208 21.12-16.2 1.724-28.709 15.316-28.709 31.83 0 1.142 0.060 2.269 0.176 3.38l-0.012-0.139zM356.864 578.816c1.694 16.229 15.301 28.772 31.837 28.772 1.139 0 2.265-0.060 3.374-0.176l-0.138 0.012c37.248-3.84 63.040-26.048 78.528-51.84 13.493-23.060 21.46-50.774 21.46-80.35 0-0.89-0.007-1.778-0.022-2.664l0.002 0.134c-3.249-57.182-37.847-105.57-86.755-128.506l-0.925-0.39c-3.925-1.849-8.524-2.928-13.376-2.928-17.682 0-32.016 14.334-32.016 32.016 0 12.83 7.547 23.898 18.444 29.005l0.196 0.083c28.448 13.304 48.279 40.77 50.481 73.075l0.015 0.269c-0.009 17.396-4.589 33.721-12.603 47.841l0.251-0.481c-7.68 12.8-17.536 19.776-30.208 21.056-16.2 1.724-28.709 15.316-28.709 31.83 0 1.142 0.060 2.269 0.176 3.38l-0.012-0.139zM448 544c0-35.346-28.654-64-64-64s-64 28.654-64 64v0c0 35.346 28.654 64 64 64s64-28.654 64-64v0zM672 544c0-35.346-28.654-64-64-64s-64 28.654-64 64v0c0 35.346 28.654 64 64 64s64-28.654 64-64v0z" />
<glyph unicode="&#xe91b;" glyph-name="blog-post-video" data-tags="tv, video, play" d="M96 832c-17.673 0-32-14.327-32-32v0-832c0-17.673 14.327-32 32-32v0h832c17.673 0 32 14.327 32 32v0 832c0 17.673-14.327 32-32 32v0h-832zM0 800c0 53.019 42.981 96 96 96v0h832c53.019 0 96-42.981 96-96v0-832c0-53.019-42.981-96-96-96v0h-832c-53.019 0-96 42.981-96 96v0 832zM352 522.112c0 0.004 0 0.008 0 0.012 0 35.346 28.654 64 64 64 11.24 0 21.804-2.898 30.984-7.987l-0.328 0.167 253.184-138.112c20.029-11.078 33.366-32.077 33.366-56.192s-13.337-45.115-33.037-56.025l-0.328-0.167-253.184-138.112c-8.852-4.922-19.416-7.82-30.656-7.82-35.346 0-64 28.654-64 64 0 0.004 0 0.008 0 0.012v-0.001 276.224zM669.184 384l-253.184 138.112v-276.224l253.184 138.112z" />
<glyph unicode="&#xe91c;" glyph-name="blog-post-link" data-tags="link, hyperlink, external" d="M531.648 528.192c-27.765 23.809-64.126 38.301-103.872 38.301-44.222 0-84.254-17.94-113.214-46.94l-203.714-203.778c-30.117-29.132-48.813-69.91-48.813-115.054 0-88.366 71.634-160 160-160 45.176 0 85.979 18.723 115.073 48.833l0.044 0.046 39.744 39.744c5.827 6.027 13.985 9.769 23.017 9.769 17.673 0 32-14.327 32-32 0-9.032-3.742-17.19-9.76-23.009l-39.753-39.753c-40.538-40.538-96.541-65.611-158.4-65.611-123.718 0-224.011 100.293-224.011 224.011 0 61.859 25.073 117.862 65.611 158.4l203.648 203.648c40.537 40.54 96.539 65.614 158.398 65.614 123.712 0 224-100.288 224-224 0-49.428-16.010-95.117-43.126-132.165l0.44 0.631c-5.909-7.585-15.045-12.418-25.309-12.418-17.673 0-32 14.327-32 32 0 6.715 2.069 12.948 5.603 18.094l-0.070-0.109c19.121 26.041 30.599 58.732 30.599 94.103 0 48.623-21.689 92.18-55.919 121.524l-0.216 0.181zM800 714.688c-0.009 0-0.019 0-0.030 0-44.175 0-84.169-17.903-113.122-46.848l-32-32c-5.827-6.027-13.985-9.769-23.017-9.769-17.673 0-32 14.327-32 32 0 9.032 3.742 17.19 9.76 23.009l32.009 32.009c40.538 40.538 96.541 65.611 158.4 65.611 123.718 0 224.011-100.293 224.011-224.011 0-61.859-25.073-117.862-65.611-158.4l-203.648-203.584c-40.53-40.501-96.507-65.55-158.334-65.55-123.712 0-224 100.288-224 224 0 49.428 16.010 95.117 43.126 132.165l-0.44-0.631c5.828 8.584 15.543 14.149 26.559 14.149 17.673 0 32-14.327 32-32 0-7.498-2.579-14.393-6.897-19.848l0.051 0.067c-19.144-26.052-30.636-58.761-30.636-94.154 0-88.366 71.634-160 160-160 44.244 0 84.294 17.958 113.257 46.983l203.715 203.715c28.925 28.949 46.814 68.93 46.814 113.088 0 88.354-71.615 159.981-159.964 160h-0.002z" />
<glyph unicode="&#xe91d;" glyph-name="blog-post-gallery" data-tags="blog, post, gallery, photo, carousel" d="M64 128c-35.264 0-64 28.736-64 64v640c0 35.264 28.736 64 64 64h576c35.264 0 64-28.736 64-64v-640c0-35.264-28.736-64-64-64h-576zM64 192h576v128h-576v-128zM640 384v19.968l-162.304 185.536c-5.877 6.778-14.502 11.039-24.121 11.039-10.843 0-20.421-5.414-26.178-13.687l-0.069-0.104-141.888-202.752h354.56zM207.36 384l167.488 239.424c17.443 24.964 46.044 41.089 78.411 41.089 0.176 0 0.352 0 0.528-0.001h-0.027c0.057 0 0.124 0 0.191 0 28.683 0 54.401-12.698 71.838-32.779l0.099-0.117 114.176-130.432v330.816h-576.064v-448h143.36zM757.568-128c-0.014 0-0.030 0-0.046 0-7.218 0-14.156 1.195-20.629 3.397l0.451-0.133-459.264 153.152c-6.405 2.187-10.929 8.153-10.929 15.175 0 1.806 0.299 3.542 0.851 5.161l-0.033-0.113 10.112 30.336c2.164 6.445 8.15 11.006 15.201 11.006 1.82 0 3.569-0.304 5.2-0.864l-0.113 0.034 459.2-153.152 202.432 607.168-169.856 56.64c-12.219 4.689-20.736 16.326-20.736 29.952 0 17.673 14.327 32 32 32 3.193 0 6.277-0.468 9.187-1.338l-0.227 0.058 169.92-56.64c16.3-5.506 29.348-16.952 36.825-31.701l0.167-0.363c7.68-15.36 8.896-32.64 3.456-48.896l-202.368-607.168c-8.75-25.618-32.611-43.712-60.699-43.712-0.013 0-0.026 0-0.039 0h0.002zM216 576c-57.28 0-104 46.592-104 103.936s46.72 104.064 104 104.064c57.344 0 104.064-46.72 104.064-104 0-57.344-46.656-104.064-104.064-104.064zM216 720c-21.131-1.233-37.8-18.67-37.8-40s16.669-38.767 37.692-39.995l0.108-0.005c21.131 1.233 37.8 18.67 37.8 40s-16.669 38.767-37.692 39.995l-0.108 0.005z" />
<glyph unicode="&#xe91e;" glyph-name="blog-post-photo" data-tags="photo, polaroid, picture" d="M96 832h832c17.673 0 32-14.327 32-32v-608h-672l109.371 145.809c5.84 7.745 15.118 12.751 25.566 12.751 8.839 0 16.84-3.583 22.632-9.377l43.776-43.84c5.791-5.793 13.793-9.377 22.631-9.377 10.447 0 19.725 5.007 25.624 12.833l140.858 187.792c5.842 7.727 15.109 12.72 25.542 12.72s19.7-4.993 25.6-12.8l113.978-151.952c5.842-7.727 15.109-12.72 25.542-12.72 17.673 0 32 14.327 32 32 0 7.24-2.404 13.919-6.4 19.2l-114.095 152.113c-17.525 23.18-45.326 38.159-76.625 38.159s-59.1-14.979-76.8-38.4l-118.656-158.208-17.791 17.727c-17.37 17.353-41.356 28.085-67.849 28.085-31.294 0-59.091-14.974-76.791-38.388l-138.112-184.128h-144v608c0 17.673 14.327 32 32 32zM1024 800c0 53.019-42.981 96-96 96v0h-832c-53.019 0-96-42.981-96-96v0-832c0-53.019 42.981-96 96-96v0h832c53.019 0 96 42.981 96 96v0 832zM960 128v-160c0-17.673-14.327-32-32-32h-832c-17.673 0-32 14.327-32 32v160h896zM272 672c-26.51 0-48-21.49-48-48s21.49-48 48-48v0c26.51 0 48 21.49 48 48s-21.49 48-48 48v0zM160 624c0 61.856 50.144 112 112 112s112-50.144 112-112v0c0-61.856-50.144-112-112-112s-112 50.144-112 112v0z" />
<glyph unicode="&#xe91f;" glyph-name="blog-post-audio" data-tags="audio, music, musical" d="M544 864c17.673 0 32-14.327 32-32v0-40.32l137.28-83.84c0.96-0.64 1.92-1.28 2.88-2.048 56.512-43.648 94.464-97.6 109.184-156.224 14.72-59.072 5.184-120.384-28.864-176.512-5.717-9.285-15.826-15.383-27.36-15.383-17.686 0-32.023 14.337-32.023 32.023 0 6.152 1.735 11.899 4.742 16.778l-0.079-0.138c25.664 42.24 31.872 86.080 21.44 127.68-10.368 41.664-38.144 83.584-84.864 120.128l-102.336 62.464v-620.608c0-0.001 0-0.003 0-0.004 0-106.039-85.961-192-192-192s-192 85.961-192 192c0 106.039 85.961 192 192 192 49.261 0 94.189-18.552 128.179-49.050l-0.179 0.158v592.896c0 17.673 14.327 32 32 32v0zM512 96c0 70.692-57.308 128-128 128s-128-57.308-128-128v0c0-70.692 57.308-128 128-128s128 57.308 128 128v0z" />
<glyph unicode="&#xe920;" glyph-name="blog-post-category" data-tags="folder, empty, category, categories" d="M28.16 803.84c17.357 17.378 41.34 28.136 67.835 28.16h224.005c31.299 0 59.1-14.979 76.625-38.159l0.175-0.241 67.2-89.6h464c53.019 0 96-42.981 96-96v0-576c0-53.019-42.981-96-96-96v0h-832c-53.019 0-96 42.981-96 96v0 704c0 25.472 10.112 49.92 28.16 67.84zM96 768c-17.673 0-32-14.327-32-32v0-704c0-17.673 14.327-32 32-32v0h832c17.673 0 32 14.327 32 32v0 576c0 17.673-14.327 32-32 32v0h-480c-10.433 0-19.7 4.993-25.542 12.72l-0.058 0.080-76.8 102.4c-5.9 7.807-15.167 12.8-25.6 12.8v0h-224z" />
<glyph unicode="&#xe921;" glyph-name="blog-post-date" data-tags="date, calendar, blog" d="M288.064 896c17.673 0 32-14.327 32-32v0-96h384v96c0 17.673 14.327 32 32 32s32-14.327 32-32v0-96h160c53.019 0 96-42.981 96-96v0-704c0-53.019-42.981-96-96-96v0h-832c-53.019 0-96 42.981-96 96v0 704c0 53.019 42.981 96 96 96v0h160v96c0 17.673 14.327 32 32 32v0zM256.064 704h-160c-17.673 0-32-14.327-32-32v0-160h896v160c0 17.673-14.327 32-32 32v0h-160v-64c0-17.673-14.327-32-32-32s-32 14.327-32 32v0 64h-384v-64c0-17.673-14.327-32-32-32s-32 14.327-32 32v0 64zM960.064 448h-896v-480c0-17.673 14.327-32 32-32v0h832c17.673 0 32 14.327 32 32v0 480z" />
<glyph unicode="&#xe922;" glyph-name="layout-grid-2" data-tags="layout-grid-2" d="M405.312 896.128h-341.312c-35.346 0-64-28.654-64-64v0-341.312c0-35.346 28.654-64 64-64v0h341.312c35.346 0 64 28.654 64 64v0 341.312c0 35.346-28.654 64-64 64v0zM960 896.128h-341.312c-35.346 0-64-28.654-64-64v0-341.312c0-35.346 28.654-64 64-64v0h341.312c35.346 0 64 28.654 64 64v0 341.312c0 35.346-28.654 64-64 64v0zM405.312 341.44h-341.312c-35.346 0-64-28.654-64-64v0-341.312c0-35.346 28.654-64 64-64v0h341.312c35.346 0 64 28.654 64 64v0 341.312c0 35.346-28.654 64-64 64v0zM960 341.44h-341.312c-35.346 0-64-28.654-64-64v0-341.312c0-35.346 28.654-64 64-64v0h341.312c35.346 0 64 28.654 64 64v0 341.312c0 35.346-28.654 64-64 64v0z" />
<glyph unicode="&#xe923;" glyph-name="layout-grid-3" data-tags="layout-grid-3" d="M806.144 896h152.512c0.019 0 0.042 0 0.064 0 36.053 0 65.28-29.227 65.28-65.28 0-0.023 0-0.045 0-0.068v0.004-152.512c0-36.096-29.248-65.408-65.344-65.408h-152.512c-36.089 0-65.344 29.256-65.344 65.344 0 0.022 0 0.045 0 0.067v-0.003 152.512c0 0.019 0 0.041 0 0.064 0 36.053 29.227 65.28 65.28 65.28v0zM806.144 525.632h152.512c36.096 0 65.344-29.248 65.344-65.408v-152.384c0-36.16-29.248-65.408-65.344-65.408h-152.512c-36.089 0-65.344 29.256-65.344 65.344 0 0.022 0 0.045 0 0.067v-0.003 152.32c0 0.038 0 0.083 0 0.128 0 36.053 29.227 65.28 65.28 65.28 0 0 0 0 0 0v0zM806.144 155.2h152.512c0.019 0 0.041 0 0.064 0 36.053 0 65.28-29.227 65.28-65.28v0-152.576c0-0.019 0-0.042 0-0.064 0-36.053-29.227-65.28-65.28-65.28-0.023 0-0.045 0-0.068 0h-152.508c-36.088 0-65.344 29.256-65.344 65.344v152.512c0 0.019 0 0.041 0 0.064 0 36.053 29.227 65.28 65.28 65.28v0zM435.712 896h152.512c36.096 0 65.408-29.248 65.408-65.344v-152.512c0-36.096-29.248-65.408-65.408-65.408h-152.512c-36.061 0.036-65.28 29.278-65.28 65.344 0 0.023 0 0.045 0 0.068v-0.004 152.512c0 0.038 0 0.083 0 0.128 0 36.018 29.198 65.216 65.216 65.216 0 0 0 0 0 0v0zM435.712 525.632h152.512c36.096 0 65.408-29.248 65.408-65.408v-152.384c0-36.16-29.248-65.408-65.408-65.408h-152.512c-36.061 0.036-65.28 29.278-65.28 65.344 0 0.023 0 0.045 0 0.068v-0.004 152.32c0 0.038 0 0.083 0 0.128 0 36.053 29.227 65.28 65.28 65.28 0 0 0 0 0 0v0zM435.712 155.2h152.512c36.096 0 65.408-29.248 65.408-65.28v-152.576c0-36.096-29.248-65.344-65.408-65.344h-152.512c-36.061 0.036-65.28 29.278-65.28 65.344v0 152.512c0 0.019 0 0.041 0 0.064 0 36.053 29.227 65.28 65.28 65.28v0zM65.344 896h152.512c36.096 0 65.408-29.248 65.408-65.344v-152.512c0-36.096-29.312-65.408-65.408-65.408h-152.512c-36.089 0-65.344 29.256-65.344 65.344 0 0.022 0 0.045 0 0.067v-0.003 152.512c0 0.019 0 0.042 0 0.064 0 36.053 29.227 65.28 65.28 65.28 0.023 0 0.045 0 0.068 0h-0.004zM65.344 525.632h152.512c36.096 0 65.408-29.248 65.408-65.408v-152.384c0-36.16-29.312-65.408-65.408-65.408h-152.512c-36.089 0-65.344 29.256-65.344 65.344 0 0.022 0 0.045 0 0.067v-0.003 152.32c0 36.16 29.248 65.408 65.344 65.408zM65.344 155.2h152.512c36.096 0 65.408-29.248 65.408-65.28v-152.576c0-36.096-29.312-65.344-65.408-65.344h-152.512c-36.088 0-65.344 29.256-65.344 65.344v152.512c0 0.019 0 0.042 0 0.064 0 36.053 29.227 65.28 65.28 65.28 0.023 0 0.045 0 0.068 0h-0.004z" />
<glyph unicode="&#xe924;" glyph-name="brand-logo" data-tags="logo, kalium" d="M910.94 896h-797.88c-62.344 0-113.060-50.715-113.060-113.060v-797.88c0-62.344 50.715-113.060 113.060-113.060h797.88c62.344 0 113.060 50.715 113.060 113.060v797.88c0 62.344-50.715 113.060-113.060 113.060zM271.344 595.584c0 15.828 12.921 28.75 28.75 28.75h79.788c25.519 0 38.44-30.688 20.351-48.777l-79.788-80.111c-18.090-18.090-48.777-5.168-48.777 20.351l-0.323 79.788zM271.344 172.416v81.080c0 7.753 2.907 14.859 8.399 20.351l342.087 342.087c5.491 5.491 12.598 8.399 20.351 8.399h81.080c25.519 0 38.44-30.688 20.351-48.777l-423.167-423.167c-18.090-18.090-49.1-5.491-49.1 20.028zM723.907 143.99h-76.235c-7.753 0-14.859 2.907-20.351 8.399l-120.813 120.813c-18.090 18.090-5.168 48.777 20.351 48.777h76.235c7.753 0 14.859-2.907 20.351-8.399l120.813-120.813c17.767-18.090 5.168-48.777-20.351-48.777z" />
<glyph unicode="&#xe925;" glyph-name="arrow-corner-left" data-tags="arrow, corner, bottom left, collapse" d="M998.848 830.72c5.558 5.749 8.983 13.59 8.983 22.231 0 17.673-14.327 32-32 32-8.641 0-16.482-3.425-22.24-8.991l-850.551-850.487v776.064c0 17.673-14.327 32-32 32s-32-14.327-32-32v0-853.312c0-17.673 14.327-32 32-32v0h853.312c17.673 0 32 14.327 32 32s-14.327 32-32 32v0h-776l850.496 850.496z" />
<glyph unicode="&#xe926;" glyph-name="arrow-corner-right" data-tags="arrow, enlarge, corner, topright" d="M944.192 776.064v-776.064c0-17.673 14.327-32 32-32s32 14.327 32 32v0 853.504c-0.109 17.59-14.394 31.808-31.999 31.808 0 0 0 0-0.001 0h-853.312c-17.673 0-32-14.327-32-32s14.327-32 32-32v0h776.064l-850.496-850.368c-6.027-5.827-9.769-13.985-9.769-23.017 0-17.673 14.327-32 32-32 9.032 0 17.19 3.742 23.009 9.76l850.569 850.441z" />
<glyph unicode="&#xe927;" glyph-name="long-arrow-down" data-tags="arrow, down, long" d="M512 896c17.673 0 32-14.327 32-32v0-960c0-17.673-14.327-32-32-32s-32 14.327-32 32v0 960c0 17.673 14.327 32 32 32v0zM41.344 374.656c5.794 5.808 13.805 9.401 22.656 9.401s16.862-3.593 22.655-9.401l425.345-425.409 425.344 425.408c5.798 5.798 13.808 9.384 22.656 9.384 17.695 0 32.040-14.345 32.040-32.040 0-8.848-3.586-16.858-9.384-22.656v0l-448-448c-5.794-5.808-13.805-9.401-22.656-9.401s-16.862 3.593-22.655 9.401l-448.001 448.001c-5.808 5.794-9.401 13.805-9.401 22.656s3.593 16.862 9.401 22.655l0.001 0.001z" />
<glyph unicode="&#xe928;" glyph-name="long-arrow-left" data-tags="arrow, left, previous, back" d="M1024 384c0-17.673-14.327-32-32-32v0h-960c-17.673 0-32 14.327-32 32s14.327 32 32 32v0h960c17.673 0 32-14.327 32-32v0zM502.656 854.656c5.808-5.794 9.401-13.805 9.401-22.656s-3.593-16.862-9.401-22.655l-425.409-425.345 425.408-425.344c5.798-5.798 9.384-13.808 9.384-22.656 0-17.695-14.345-32.040-32.040-32.040-8.848 0-16.858 3.586-22.656 9.384v0l-448 448c-5.808 5.794-9.401 13.805-9.401 22.656s3.593 16.862 9.401 22.655l448.001 448.001c5.794 5.808 13.805 9.401 22.656 9.401s16.862-3.593 22.655-9.401l0.001-0.001z" />
<glyph unicode="&#xe929;" glyph-name="long-arrow-right" data-tags="right, arrow, next" d="M0 384c0 17.673 14.327 32 32 32v0h960c17.673 0 32-14.327 32-32s-14.327-32-32-32v0h-960c-17.673 0-32 14.327-32 32v0zM521.344-86.656c-5.808 5.794-9.401 13.805-9.401 22.656s3.593 16.862 9.401 22.655l425.409 425.345-425.408 425.344c-5.798 5.798-9.384 13.808-9.384 22.656 0 17.695 14.345 32.040 32.040 32.040 8.848 0 16.858-3.586 22.656-9.384l448-448c5.808-5.794 9.401-13.805 9.401-22.656s-3.593-16.862-9.401-22.655l-448.001-448.001c-5.794-5.808-13.805-9.401-22.656-9.401s-16.862 3.593-22.655 9.401l-0.001 0.001z" />
<glyph unicode="&#xe92a;" glyph-name="long-arrow-up" data-tags="arrow, up, fold, top" d="M512-128c-17.673 0-32 14.327-32 32v0 960c0 17.673 14.327 32 32 32s32-14.327 32-32v0-960c0-17.673-14.327-32-32-32v0zM982.656 393.344c-5.794-5.808-13.805-9.401-22.656-9.401s-16.862 3.593-22.655 9.401l-425.345 425.409-425.344-425.408c-5.798-5.798-13.808-9.384-22.656-9.384-17.695 0-32.040 14.345-32.040 32.040 0 8.848 3.586 16.858 9.384 22.656l448 448c5.794 5.808 13.805 9.401 22.656 9.401s16.862-3.593 22.655-9.401l448.001-448.001c5.808-5.794 9.401-13.805 9.401-22.656s-3.593-16.862-9.401-22.655l-0.001-0.001z" />
<glyph unicode="&#xe92b;" glyph-name="arrow-left" data-tags="arrow, left, previous, back" d="M799.232 866.048c10.404-11.343 16.78-26.527 16.78-43.201 0-18.679-8.002-35.489-20.765-47.188l-0.048-0.043-428.352-391.68 428.352-391.552c12.808-11.744 20.809-28.554 20.809-47.232 0-35.351-28.658-64.009-64.009-64.009-16.673 0-31.857 6.375-43.247 16.819l-454.033 415.189c-19.216 17.614-31.219 42.829-31.219 70.848s12.003 53.234 31.148 70.784l0.071 0.064 454.080 415.232c11.343 10.404 26.527 16.78 43.201 16.78 18.679 0 35.489-8.002 47.188-20.765l0.043-0.048z" />
<glyph unicode="&#xe92c;" glyph-name="arrow-right" data-tags="arrow, right, next, forward" d="M224.768-98.048c-10.404 11.343-16.78 26.527-16.78 43.201 0 18.679 8.002 35.489 20.765 47.188l0.048 0.043 428.352 391.68-428.352 391.552c-12.808 11.744-20.809 28.554-20.809 47.232 0 35.351 28.658 64.009 64.009 64.009 16.673 0 31.857-6.375 43.247-16.819l454.097-415.189c19.216-17.614 31.219-42.829 31.219-70.848s-12.003-53.234-31.148-70.784l-0.071-0.064-454.144-415.232c-11.343-10.404-26.527-16.78-43.201-16.78-18.679 0-35.489 8.002-47.188 20.765l-0.043 0.048z" />
<glyph unicode="&#xe92d;" glyph-name="arrow-up" data-tags="arrow, up, fold" d="M994.048 96.768c-11.343-10.404-26.527-16.78-43.201-16.78-18.679 0-35.489 8.002-47.188 20.765l-0.043 0.048-391.616 428.352-391.68-428.352c-11.79-13.407-28.98-21.822-48.136-21.822-35.346 0-64 28.654-64 64 0 17.165 6.758 32.752 17.758 44.246l-0.022-0.024 415.232 454.080c17.614 19.216 42.829 31.219 70.848 31.219s53.234-12.003 70.784-31.148l0.064-0.071 415.232-454.144c10.404-11.343 16.78-26.527 16.78-43.201 0-18.679-8.002-35.489-20.765-47.188l-0.048-0.043z" />
<glyph unicode="&#xe92e;" glyph-name="show-password" data-tags="eye, password, show, view" d="M511.936 640c185.344 2.816 371.2-125.184 485.504-250.88l0.128-0.128c16.422-18.172 26.471-42.377 26.471-68.928s-10.049-50.756-26.551-69.018l-0.048 0.026c-111.68-123.072-297.088-253.952-485.44-251.072-188.416-2.944-373.76 128-485.376 251.008l-0.128 0.064c-16.422 18.172-26.471 42.377-26.471 68.928s10.049 50.756 26.551 69.018l0.048-0.026c114.176 125.824 299.968 253.824 485.312 251.008zM73.984 346.048c-6.194-6.872-9.982-16.018-9.982-26.048s3.789-19.176 10.013-26.083l-0.031 0.035c107.008-117.824 276.16-232.704 437.44-229.952h1.024c161.28-2.752 330.432 112.128 437.568 229.952 6.194 6.872 9.982 16.018 9.982 26.048s-3.789 19.176-10.013 26.083l0.031-0.035c-109.44 120.32-279.104 232.512-437.568 229.824h-1.024c-158.464 2.688-328.128-109.504-437.44-229.824zM514.048 445.76c-70.692 0-128-57.308-128-128s57.308-128 128-128v0c70.692 0 128 57.308 128 128s-57.308 128-128 128v0zM322.048 317.76c0 106.039 85.961 192 192 192s192-85.961 192-192v0c0-106.039-85.961-192-192-192s-192 85.961-192 192v0z" />
<glyph unicode="&#xe92f;" glyph-name="payment-method" data-tags="payment, methods, credit card, debit" d="M960 320c0-17.673 14.327-32 32-32s32 14.327 32 32v0 480c0 52.928-43.072 96-96 96h-704c-52.928 0-96-43.072-96-96v-160c0-17.673 14.327-32 32-32s32 14.327 32 32v0h768v-320zM960 800v-96h-768v96c0 17.673 14.327 32 32 32v0h704c17.673 0 32-14.327 32-32v0zM160 96c-17.673 0-32 14.327-32 32s14.327 32 32 32v0h96c17.673 0 32-14.327 32-32s-14.327-32-32-32v0h-96zM512.192 1.152c4.881-0.763 10.511-1.199 16.243-1.199 23.807 0 45.859 7.518 63.909 20.31l-0.344-0.232c17.813-12.474 39.934-19.933 63.798-19.933 61.891 0 112.064 50.173 112.064 112.064 0 25.266-8.362 48.579-22.468 67.323l0.207-0.287c-20.499 27.316-52.816 44.801-89.216 44.801-0.202 0-0.405-0.001-0.607-0.002h0.031c-22.976 0-44.928-6.976-63.808-20.096-17.793 12.432-39.878 19.865-63.699 19.865-61.891 0-112.064-50.173-112.064-112.064 0-25.208 8.323-48.472 22.372-67.194l-0.208 0.29c17.92-23.872 44.16-39.424 73.792-43.648zM617.6 83.2c-5.927 7.778-15.195 12.747-25.624 12.747-10.401 0-19.647-4.942-25.519-12.607l-0.057-0.077c-8.746-11.749-22.594-19.278-38.201-19.278-2.487 0-4.929 0.191-7.313 0.56l0.266-0.034c-12.986 1.902-24.079 8.793-31.463 18.629l-0.089 0.123c-6.132 7.956-9.827 18.064-9.827 29.036 0 26.404 21.404 47.808 47.808 47.808 2.565 0 5.083-0.202 7.539-0.591l-0.271 0.035c13.006-1.854 24.129-8.73 31.528-18.566l0.088-0.122c5.928-7.76 15.185-12.715 25.6-12.715s19.672 4.956 25.543 12.638l0.057 0.078c8.851 11.692 22.74 19.168 38.376 19.168 26.51 0 48-21.49 48-48s-21.49-48-48-48c-15.636 0-29.525 7.476-38.289 19.048l-0.087 0.12zM0-32c0-52.928 43.072-96 96-96h704c52.928 0 96 43.072 96 96v480c0 52.928-43.072 96-96 96h-704c-52.928 0-96-43.072-96-96v-480zM96-64c-17.673 0-32 14.327-32 32v0 320h768v-320c0-17.673-14.327-32-32-32v0h-704zM832 448v-96h-768v96c0 17.673 14.327 32 32 32v0h704c17.673 0 32-14.327 32-32v0z" />
<glyph unicode="&#xe930;" glyph-name="hide-password" data-tags="eye, password, hide, view" d="M28.8 296.32c5.654 5.131 13.196 8.273 21.471 8.273 9.39 0 17.835-4.044 23.689-10.486l0.024-0.026c107.008-117.888 276.224-232.704 437.44-230.016h1.088c161.28-2.688 330.496 112.192 437.632 230.080 5.877 6.444 14.308 10.472 23.68 10.472 17.678 0 32.008-14.331 32.008-32.008 0-8.306-3.163-15.872-8.351-21.561l0.023 0.025c-20.864-22.976-44.352-46.272-69.888-68.864l68.224-68.288c6.027-5.827 9.769-13.985 9.769-23.017 0-17.673-14.327-32-32-32-9.032 0-17.19 3.742-23.009 9.76l-72.585 72.649c-41.088-31.424-86.016-60.288-133.44-83.584l51.136-88.576c2.762-4.633 4.394-10.218 4.394-16.184 0-17.673-14.327-32-32-32-11.857 0-22.207 6.448-27.736 16.029l-0.082 0.155-54.848 95.040c-41.537-16.376-89.632-27.553-139.805-31.263l-1.635-0.097v-96.832c0-17.673-14.327-32-32-32s-32 14.327-32 32v0 96.832c-51.807 3.806-99.903 14.983-144.814 32.52l3.374-1.16-54.848-95.040c-5.611-9.736-15.962-16.184-27.818-16.184-17.673 0-32 14.327-32 32 0 5.966 1.633 11.55 4.475 16.331l-0.081-0.147 51.2 88.576c-50.895 25.561-94.627 53.371-135.24 84.997l1.8-1.349-72.704-72.704c-5.749-5.558-13.59-8.983-22.231-8.983-17.673 0-32 14.327-32 32 0 8.641 3.425 16.482 8.991 22.24l68.343 68.343c-24.856 22.029-47.641 44.489-69.19 68.095l-0.634 0.705c-5.168 5.663-8.333 13.231-8.333 21.538 0 9.389 4.043 17.833 10.483 23.686l0.026 0.023z" />
<glyph unicode="&#xe931;" glyph-name="add-to-wishlist" data-tags="heart, wishlist, love" d="M338.56 761.792l1.484-0.425c31.469-10.407 59.642-28.054 82.548-50.967l66.816-66.752c5.791-5.789 13.789-9.369 22.624-9.369s16.833 3.58 22.624 9.369l66.753 66.753c38.015 38.039 90.547 61.569 148.575 61.569 116.008 0 210.050-94.043 210.050-210.050 0-57.98-23.491-110.473-61.474-148.48l-386.56-403.2-386.433 403.073c-38.048 38.016-61.583 90.554-61.583 148.588 0 116.006 94.042 210.048 210.048 210.048 23.061 0 45.254-3.716 64.529-10.158zM28.928 684.48c-18.255-35.712-28.952-77.898-28.952-122.584 0-75.579 30.602-144.011 80.092-193.58l-0.004 0.004 408.832-426.496c5.834-6.081 14.028-9.859 23.104-9.859s17.27 3.779 23.093 9.848l0.011 0.011 408.96 426.56c49.519 49.583 80.143 118.047 80.143 193.664 0 151.361-122.702 274.063-274.063 274.063-75.744 0-144.311-30.727-193.917-80.396l-44.163-44.163-44.224 44.16c-49.593 49.597-118.108 80.274-193.788 80.274-106.684 0-199.131-60.961-244.405-149.949l-0.719-1.557z" />
<glyph unicode="&#xe932;" glyph-name="added-to-wishlist" data-tags="love-it" d="M3.52 517.952c-2.285 13.292-3.591 28.601-3.591 44.216 0 151.317 122.667 273.984 273.984 273.984 75.754 0 144.327-30.744 193.923-80.435l44.164-44.164 44.16 44.16c49.609 49.672 118.176 80.399 193.92 80.399 151.361 0 274.063-122.702 274.063-274.063 0-75.617-30.624-144.081-80.146-193.667l0.003 0.003-408.896-426.56c-5.834-6.081-14.028-9.859-23.104-9.859s-17.27 3.779-23.093 9.848l-0.011 0.011-408.832 426.432c-39.348 39.42-66.755 90.772-76.324 148.16l-0.22 1.6z" />
<glyph unicode="&#xe933;" glyph-name="subscriptions" data-tags="subscriptions, arrows" d="M370.24 728c41.992 17.168 90.723 27.133 141.781 27.133 109.947 0 209.103-46.208 279.105-120.263l0.17-0.182c5.396-5.717 8.713-13.447 8.713-21.952 0-17.678-14.331-32.009-32.009-32.009-9.173 0-17.445 3.859-23.281 10.042l-0.015 0.016c-58.475 61.848-141.094 100.344-232.704 100.344-176.706 0-319.959-143.227-320-319.923v-16.196l73.344 73.408c5.798 5.798 13.808 9.384 22.656 9.384 17.695 0 32.040-14.345 32.040-32.040 0-8.848-3.586-16.858-9.384-22.656v0l-128-128c-5.794-5.808-13.805-9.401-22.656-9.401s-16.862 3.593-22.655 9.401l-128.001 128.001c-5.798 5.798-9.384 13.808-9.384 22.656 0 17.695 14.345 32.040 32.040 32.040 8.848 0 16.858-3.586 22.656-9.384l73.344-73.408v16.192c0.033 160.998 99.139 298.839 239.668 355.877l2.572 0.923zM510.72 576c17.673 0 32-14.327 32-32v0-15.040c29.933-6.998 55.149-23.84 72.669-46.857l0.227-0.311c4.039-5.3 6.471-12.014 6.471-19.296 0-17.677-14.33-32.007-32.007-32.007-10.395 0-19.632 4.955-25.479 12.632l-0.057 0.078c-11.568 15.217-29.681 24.941-50.065 24.941-1.3 0-2.59-0.040-3.87-0.117l0.176 0.009c-18.048 0-33.28-5.568-43.264-13.056-10.048-7.488-13.12-15.36-13.12-21.056 0-5.76 3.072-13.568 13.12-21.12 9.984-7.424 25.216-12.992 43.2-12.992 30.464 0 59.328-9.088 81.28-25.472 22.080-16.448 38.592-41.6 38.592-72.256 0-30.592-16.448-55.872-38.4-72.384-13.981-10.398-30.592-18.14-48.616-22.114l-0.856-0.158v-15.424c0-17.673-14.327-32-32-32s-32 14.327-32 32v0 15.040c-29.925 7.020-55.135 23.856-72.67 46.858l-0.226 0.31c-4.039 5.3-6.471 12.014-6.471 19.296 0 17.677 14.33 32.007 32.007 32.007 10.395 0 19.632-4.955 25.479-12.632l0.057-0.078c11.568-15.219 29.682-24.945 50.068-24.945 1.321 0 2.633 0.041 3.934 0.121l-0.178-0.009c18.112 0 33.152 5.504 42.944 12.864s12.928 15.104 12.928 21.248c0 6.080-3.072 13.696-12.8 20.928-11.531 8.026-25.831 12.823-41.252 12.823-0.64 0-1.278-0.008-1.914-0.025l0.094 0.002c-30.656 0-59.584 9.344-81.6 25.856-21.952 16.448-38.72 41.664-38.72 72.256s16.768 55.808 38.72 72.32c14.080 10.56 31.104 18.176 49.6 22.336v15.36c0 0.019 0 0.041 0 0.064 0 17.673 14.327 32 32 32 0 0 0 0 0 0v0zM841.344 460.096c5.794 5.808 13.805 9.401 22.656 9.401s16.862-3.593 22.655-9.401l128.001-128.001c5.785-5.792 9.362-13.79 9.362-22.624 0-17.683-14.335-32.018-32.018-32.018-8.849 0-16.86 3.59-22.656 9.393v0l-73.6 73.6c-7.25-206.377-176.297-370.927-383.777-370.927-109.941 0-209.091 46.202-279.092 120.25l-0.17 0.182c-5.41 5.723-8.735 13.465-8.735 21.984 0 17.69 14.341 32.031 32.031 32.031 9.171 0 17.443-3.855 23.282-10.032l0.014-0.015c58.473-61.831 141.080-100.314 232.676-100.314 171.923 0 312.18 135.58 319.684 305.653l0.024 0.677-73.024-73.088c-5.796-5.804-13.807-9.394-22.656-9.394-17.683 0-32.018 14.335-32.018 32.018 0 8.834 3.577 16.832 9.362 22.624v0l128 128z" />
<glyph unicode="&#xe934;" glyph-name="eye" data-tags="eye" d="M511.936 640c185.344 2.816 371.2-125.184 485.504-250.88l0.128-0.128c16.422-18.172 26.471-42.377 26.471-68.928s-10.049-50.756-26.551-69.018l-0.048 0.026c-111.68-123.072-297.088-253.952-485.44-251.072-188.416-2.944-373.76 128-485.376 251.008l-0.128 0.064c-16.422 18.172-26.471 42.377-26.471 68.928s10.049 50.756 26.551 69.018l0.048-0.026c114.176 125.824 299.968 253.824 485.312 251.008zM73.984 346.048c-6.194-6.872-9.982-16.018-9.982-26.048s3.789-19.176 10.013-26.083l-0.031 0.035c107.008-117.824 276.16-232.704 437.44-229.952h1.024c161.28-2.752 330.432 112.128 437.568 229.952 6.194 6.872 9.982 16.018 9.982 26.048s-3.789 19.176-10.013 26.083l0.031-0.035c-109.44 120.32-279.104 232.512-437.568 229.824h-1.024c-158.464 2.688-328.128-109.504-437.44-229.824zM514.048 445.76c-70.692 0-128-57.308-128-128s57.308-128 128-128v0c70.692 0 128 57.308 128 128s-57.308 128-128 128v0zM322.048 317.76c0 106.039 85.961 192 192 192s192-85.961 192-192v0c0-106.039-85.961-192-192-192s-192 85.961-192 192v0z" />
<glyph unicode="&#xe935;" glyph-name="check" data-tags="check" d="M1012.8 760.32c6.875-5.904 11.202-14.607 11.202-24.32 0-7.961-2.907-15.243-7.718-20.843l-575.964-671.958c-5.905-6.892-14.618-11.231-24.345-11.231-7.803 0-14.953 2.793-20.506 7.433l0.051-0.041-384 320c-7.085 5.919-11.56 14.757-11.56 24.64 0 17.695 14.345 32.040 32.040 32.040 7.812 0 14.971-2.796 20.531-7.441l-0.051 0.041 359.744-299.84 555.52 648c5.904 6.856 14.594 11.171 24.293 11.171 7.944 0 15.212-2.895 20.807-7.687l-0.043 0.036z" />
<glyph unicode="&#xe936;" glyph-name="zoom" data-tags="zoom" d="M0 864c0 17.673 14.327 32 32 32v0h288c17.673 0 32-14.327 32-32s-14.327-32-32-32v0h-210.752l402.752-402.752 402.752 402.752h-210.752c-17.673 0-32 14.327-32 32s14.327 32 32 32v0h288c17.673 0 32-14.327 32-32v0-288c0-17.673-14.327-32-32-32s-32 14.327-32 32v0 210.752l-402.752-402.752 402.752-402.752v210.752c0 17.673 14.327 32 32 32s32-14.327 32-32v0-288c0-17.673-14.327-32-32-32v0h-288c-17.673 0-32 14.327-32 32s14.327 32 32 32v0h210.752l-402.752 402.752-402.752-402.752h210.752c17.673 0 32-14.327 32-32s-14.327-32-32-32v0h-288c-17.673 0-32 14.327-32 32v0 288c0 17.673 14.327 32 32 32s32-14.327 32-32v0-210.752l402.752 402.752-402.752 402.752v-210.752c0-17.673-14.327-32-32-32s-32 14.327-32 32v0 288z" />
<glyph unicode="&#xe937;" glyph-name="play" data-tags="play" d="M341.589 776.448l451.627-301.141c13.013-8.661 25.088-16.725 34.347-24.192 9.685-7.808 21.12-18.645 27.691-34.475 4.115-9.657 6.507-20.89 6.507-32.683s-2.392-23.026-6.717-33.242l0.21 0.56c-6.571-15.829-18.005-26.667-27.691-34.475-9.259-7.467-21.333-15.531-34.347-24.192l-451.627-301.056c-15.915-10.581-30.208-20.139-42.368-26.752-12.16-6.571-28.843-14.080-48.299-12.928-25.758 1.583-48.241 14.367-62.824 33.498l-0.152 0.208c-11.776 15.531-14.763 33.621-16.043 47.36-1.237 13.781-1.237 30.976-1.237 50.091v601.899c0 19.157 0 36.352 1.28 50.133 1.237 13.739 4.267 31.787 16 47.36 14.735 19.339 37.218 32.124 62.735 33.695l0.241 0.012c19.456 1.152 36.139-6.4 48.299-12.971s26.453-16.128 42.368-26.709z" />
<glyph unicode="&#xe938;" glyph-name="layout-grid-4" data-tags="layout-grid-4" d="M593.408 896h110.272c26.112 0 47.232-21.12 47.232-47.232v-110.336c0-26.048-21.12-47.232-47.232-47.232h-110.272c-0.019 0-0.042 0-0.064 0-26.086 0-47.232 21.146-47.232 47.232 0 0 0 0 0 0v0 110.336c0 26.048 21.184 47.232 47.296 47.232zM866.496 896h110.272c26.048 0 47.232-21.12 47.232-47.232v-110.336c0-26.048-21.12-47.232-47.232-47.232h-110.272c-0.019 0-0.042 0-0.064 0-26.086 0-47.232 21.146-47.232 47.232 0 0 0 0 0 0v0 110.336c0 26.048 21.12 47.232 47.296 47.232zM593.408 622.912h110.272c26.112 0 47.232-21.12 47.232-47.232v-110.272c0-26.112-21.12-47.296-47.232-47.296h-110.272c-0.019 0-0.042 0-0.064 0-26.086 0-47.232 21.146-47.232 47.232 0 0.023 0 0.045 0 0.068v-0.004 110.272c0 26.112 21.184 47.232 47.296 47.232zM866.496 622.912h110.272c26.048 0 47.232-21.12 47.232-47.232v-110.272c0-26.112-21.12-47.296-47.232-47.296h-110.272c-0.019 0-0.042 0-0.064 0-26.086 0-47.232 21.146-47.232 47.232 0 0.023 0 0.045 0 0.068v-0.004 110.272c0 26.112 21.12 47.232 47.296 47.232zM593.408 349.888h110.272c26.112 0 47.232-21.184 47.232-47.296v-110.272c0-26.112-21.12-47.232-47.232-47.232h-110.272c-0.019 0-0.042 0-0.064 0-26.086 0-47.232 21.146-47.232 47.232 0 0 0 0 0 0v0 110.272c0.036 26.106 21.19 47.26 47.293 47.296h0.003zM593.408 76.8h110.272c26.112 0 47.232-21.12 47.232-47.232v-110.272c0-26.112-21.12-47.296-47.232-47.296h-110.272c-0.019 0-0.042 0-0.064 0-26.086 0-47.232 21.146-47.232 47.232 0 0.023 0 0.045 0 0.068v-0.004 110.272c0 26.048 21.184 47.232 47.296 47.232zM866.496 349.888h110.272c26.048 0 47.232-21.184 47.232-47.296v-110.272c0-26.112-21.12-47.232-47.232-47.232h-110.272c-0.019 0-0.042 0-0.064 0-26.086 0-47.232 21.146-47.232 47.232 0 0 0 0 0 0v0 110.272c0 26.112 21.12 47.296 47.296 47.296zM866.496 76.8h110.272c26.048 0 47.232-21.12 47.232-47.232v-110.272c0-26.112-21.12-47.296-47.232-47.296h-110.272c-0.019 0-0.042 0-0.064 0-26.086 0-47.232 21.146-47.232 47.232 0 0.023 0 0.045 0 0.068v-0.004 110.272c0 26.048 21.12 47.232 47.296 47.232zM320.32 896h110.272c26.112 0 47.296-21.12 47.296-47.232v-110.336c0-26.048-21.12-47.232-47.296-47.232h-110.272c-26.086 0-47.232 21.146-47.232 47.232v0 110.336c0 26.048 21.12 47.232 47.232 47.232zM320.32 622.912h110.272c26.112 0 47.296-21.12 47.296-47.232v-110.272c0-26.112-21.12-47.296-47.296-47.296h-110.272c0 0 0 0 0 0-26.086 0-47.232 21.146-47.232 47.232 0 0.022 0 0.045 0 0.067v-0.003 110.272c0 26.112 21.12 47.232 47.232 47.232zM320.32 349.888h110.272c26.106-0.036 47.26-21.19 47.296-47.293v-110.275c0-26.112-21.12-47.232-47.296-47.232h-110.272c-26.086 0-47.232 21.146-47.232 47.232v0 110.272c0 26.112 21.12 47.296 47.232 47.296zM320.32 76.8h110.272c26.112 0 47.296-21.12 47.296-47.232v-110.272c0-26.112-21.12-47.296-47.296-47.296h-110.272c0 0 0 0 0 0-26.086 0-47.232 21.146-47.232 47.232 0 0.022 0 0.045 0 0.067v-0.003 110.272c0 26.048 21.12 47.232 47.232 47.232zM47.296 896h110.272c26.048 0 47.232-21.12 47.232-47.232v-110.336c0-26.048-21.12-47.232-47.232-47.232h-110.272c-0.019 0-0.042 0-0.064 0-26.086 0-47.232 21.146-47.232 47.232 0 0 0 0 0 0v0 110.336c0 26.048 21.12 47.232 47.36 47.232zM47.296 622.912h110.272c26.048 0 47.232-21.12 47.232-47.232v-110.272c0-26.112-21.12-47.296-47.232-47.296h-110.272c-0.019 0-0.042 0-0.064 0-26.086 0-47.232 21.146-47.232 47.232 0 0.023 0 0.045 0 0.068v-0.004 110.272c0 26.112 21.12 47.232 47.296 47.232zM47.296 349.888h110.272c26.048 0 47.232-21.184 47.232-47.296v-110.272c0-26.112-21.12-47.232-47.232-47.232h-110.272c-0.019 0-0.042 0-0.064 0-26.086 0-47.232 21.146-47.232 47.232 0 0 0 0 0 0v0 110.272c0 26.112 21.12 47.296 47.296 47.296zM47.296 76.8h110.272c26.048 0 47.232-21.12 47.232-47.232v-110.272c0-26.112-21.12-47.296-47.232-47.296h-110.272c-0.019 0-0.042 0-0.064 0-26.086 0-47.232 21.146-47.232 47.232 0 0.023 0 0.045 0 0.068v-0.004 110.272c0 26.048 21.12 47.232 47.296 47.232z" />
<glyph unicode="&#xe939;" glyph-name="layout-list" data-tags="layout-list" d="M405.312 341.312h-341.312c-35.346 0-64-28.654-64-64v0-341.312c0-35.346 28.654-64 64-64v0h341.312c35.346 0 64 28.654 64 64v0 341.312c0 35.346-28.654 64-64 64v0zM608 202.688h384c17.673 0 32 14.327 32 32s-14.327 32-32 32v0h-384c-17.673 0-32-14.327-32-32s14.327-32 32-32v0zM992.128 138.688h-384c-17.673 0-32-14.327-32-32s14.327-32 32-32v0h384c17.673 0 32 14.327 32 32s-14.327 32-32 32v0zM992.128 10.688h-384c-17.673 0-32-14.327-32-32s14.327-32 32-32v0h384c17.673 0 32 14.327 32 32s-14.327 32-32 32v0zM405.312 896h-341.312c-35.346 0-64-28.654-64-64v0-341.312c0-35.346 28.654-64 64-64v0h341.312c35.346 0 64 28.654 64 64v0 341.312c0 35.346-28.654 64-64 64v0zM608 757.312h384c17.673 0 32 14.327 32 32s-14.327 32-32 32v0h-384c-17.673 0-32-14.327-32-32s14.327-32 32-32v0zM992.128 693.312h-384c-17.673 0-32-14.327-32-32s14.327-32 32-32v0h384c17.673 0 32 14.327 32 32s-14.327 32-32 32v0zM992.128 565.312h-384c-17.673 0-32-14.327-32-32s14.327-32 32-32v0h384c17.673 0 32 14.327 32 32s-14.327 32-32 32v0z" />
<glyph unicode="&#xe93a;" glyph-name="shop-filter" data-tags="shop-filter" d="M976.006 176c26.509 0 48-21.491 48-48s-21.491-48-48-48h-470.051c-21.314-82.81-96.487-144-185.951-144s-164.637 61.19-185.951 144h-86.049c-26.51 0-48 21.491-48 48s21.49 48 48 48h86.049c21.315 82.811 96.487 144 185.951 144s164.637-61.189 185.951-144h470.051zM320.004 32c53.020 0 96 42.982 96 96s-42.98 96-96 96c-53.020 0-96-42.982-96-96s42.98-96 96-96zM48.004 592c-26.51 0-48 21.491-48 48s21.49 48 48 48h470.049c21.315 82.811 96.487 144 185.954 144 89.459 0 164.634-61.189 185.946-144h86.054c26.509 0 48-21.491 48-48s-21.491-48-48-48h-86.054c-21.312-82.811-96.486-144-185.946-144-89.467 0-164.639 61.189-185.954 144h-470.049zM704.006 736c-53.024 0-96.003-42.98-96.003-96s42.979-96 96.003-96c53.018 0 96 42.98 96 96s-42.982 96-96 96z" />
<glyph unicode="&#xe93b;" glyph-name="layout-grid-5" data-tags="layout-grid-5" horiz-adv-x="1344" d="M593.408 896h110.272c26.112 0 47.296-21.12 47.296-47.232v-110.336c-0.036-26.093-21.198-47.232-47.296-47.232h-110.272c-0.019 0-0.042 0-0.064 0-26.086 0-47.232 21.146-47.232 47.232 0 0 0 0 0 0v0 110.336c0 26.048 21.184 47.232 47.296 47.232zM866.496 896h110.272c26.048 0 47.232-21.12 47.232-47.232v-110.336c0-26.048-21.12-47.232-47.232-47.232h-110.272c-0.019 0-0.042 0-0.064 0-26.086 0-47.232 21.146-47.232 47.232 0 0 0 0 0 0v0 110.336c0 26.048 21.12 47.232 47.296 47.232zM593.408 622.912h110.272c26.112 0 47.296-21.12 47.296-47.232v-110.272c-0.036-26.106-21.19-47.26-47.293-47.296h-110.275c-0.019 0-0.042 0-0.064 0-26.086 0-47.232 21.146-47.232 47.232 0 0.023 0 0.045 0 0.068v-0.004 110.272c0 26.112 21.184 47.232 47.296 47.232zM866.496 622.912h110.272c26.048 0 47.232-21.12 47.232-47.232v-110.272c0-26.112-21.12-47.296-47.232-47.296h-110.272c-0.019 0-0.042 0-0.064 0-26.086 0-47.232 21.146-47.232 47.232 0 0.023 0 0.045 0 0.068v-0.004 110.272c0 26.112 21.12 47.232 47.296 47.232zM593.408 349.888h110.272c26.106-0.036 47.26-21.19 47.296-47.293v-110.275c0 0 0 0 0 0 0-26.086-21.146-47.232-47.232-47.232-0.022 0-0.045 0-0.067 0h-110.269c-0.019 0-0.042 0-0.064 0-26.086 0-47.232 21.146-47.232 47.232 0 0 0 0 0 0v0 110.272c0.036 26.106 21.19 47.26 47.293 47.296h0.003zM593.408 76.8h110.272c26.112 0 47.296-21.12 47.296-47.232v-110.272c-0.036-26.106-21.19-47.26-47.293-47.296h-110.275c-0.019 0-0.042 0-0.064 0-26.086 0-47.232 21.146-47.232 47.232 0 0.023 0 0.045 0 0.068v-0.004 110.272c0 26.048 21.184 47.232 47.296 47.232zM866.496 349.888h110.272c26.048 0 47.232-21.184 47.232-47.296v-110.272c0-26.112-21.12-47.232-47.232-47.232h-110.272c-0.019 0-0.042 0-0.064 0-26.086 0-47.232 21.146-47.232 47.232 0 0 0 0 0 0v0 110.272c0 26.112 21.12 47.296 47.296 47.296zM866.496 76.8h110.272c26.048 0 47.232-21.12 47.232-47.232v-110.272c0-26.112-21.12-47.296-47.232-47.296h-110.272c-0.019 0-0.042 0-0.064 0-26.086 0-47.232 21.146-47.232 47.232 0 0.023 0 0.045 0 0.068v-0.004 110.272c0 26.048 21.12 47.232 47.296 47.232zM1122.432 896h110.336c26.048 0 47.232-21.12 47.232-47.232v-110.336c0-26.048-21.12-47.232-47.232-47.232h-110.336c-26.086 0-47.232 21.146-47.232 47.232v0 110.336c0 26.048 21.12 47.232 47.232 47.232zM1122.432 622.912h110.336c26.048 0 47.232-21.12 47.232-47.232v-110.272c0-26.112-21.12-47.296-47.232-47.296h-110.336c0 0 0 0 0 0-26.086 0-47.232 21.146-47.232 47.232 0 0.022 0 0.045 0 0.067v-0.003 110.272c0 26.112 21.12 47.232 47.232 47.232zM1122.432 349.888h110.336c26.048 0 47.232-21.184 47.232-47.296v-110.272c0-26.112-21.12-47.232-47.232-47.232h-110.336c-26.086 0-47.232 21.146-47.232 47.232v0 110.272c0 26.112 21.12 47.296 47.232 47.296zM1122.432 76.8h110.336c26.048 0 47.232-21.12 47.232-47.232v-110.272c0-26.112-21.12-47.296-47.232-47.296h-110.336c0 0 0 0 0 0-26.086 0-47.232 21.146-47.232 47.232 0 0.022 0 0.045 0 0.067v-0.003 110.272c0 26.048 21.12 47.232 47.232 47.232zM320.32 896h110.272c26.112 0 47.296-21.12 47.296-47.232v-110.336c0-26.048-21.12-47.232-47.296-47.232h-110.272c-26.086 0-47.232 21.146-47.232 47.232v0 110.336c0 26.048 21.12 47.232 47.232 47.232zM320.32 622.912h110.272c26.112 0 47.296-21.12 47.296-47.232v-110.272c0-26.112-21.12-47.296-47.296-47.296h-110.272c0 0 0 0 0 0-26.086 0-47.232 21.146-47.232 47.232 0 0.022 0 0.045 0 0.067v-0.003 110.272c0 26.112 21.12 47.232 47.232 47.232zM320.32 349.888h110.272c26.106-0.036 47.26-21.19 47.296-47.293v-110.275c0-26.112-21.12-47.232-47.296-47.232h-110.272c-26.086 0-47.232 21.146-47.232 47.232v0 110.272c0 26.112 21.12 47.296 47.232 47.296zM320.32 76.8h110.272c26.112 0 47.296-21.12 47.296-47.232v-110.272c0-26.112-21.12-47.296-47.296-47.296h-110.272c0 0 0 0 0 0-26.086 0-47.232 21.146-47.232 47.232 0 0.022 0 0.045 0 0.067v-0.003 110.272c0 26.048 21.12 47.232 47.232 47.232zM47.296 896h110.272c26.112 0 47.232-21.12 47.232-47.232v-110.336c0-26.048-21.12-47.232-47.232-47.232h-110.272c-0.019 0-0.042 0-0.064 0-26.086 0-47.232 21.146-47.232 47.232 0 0 0 0 0 0v0 110.336c0 26.048 21.12 47.232 47.36 47.232zM47.296 622.912h110.272c26.112 0 47.232-21.12 47.232-47.232v-110.272c0-26.112-21.12-47.296-47.232-47.296h-110.272c-0.019 0-0.042 0-0.064 0-26.086 0-47.232 21.146-47.232 47.232 0 0.023 0 0.045 0 0.068v-0.004 110.272c0 26.112 21.12 47.232 47.296 47.232zM47.296 349.888h110.272c26.112 0 47.232-21.184 47.232-47.296v-110.272c0-26.112-21.12-47.232-47.232-47.232h-110.272c-0.019 0-0.042 0-0.064 0-26.086 0-47.232 21.146-47.232 47.232 0 0 0 0 0 0v0 110.272c0 26.112 21.12 47.296 47.296 47.296zM47.296 76.8h110.272c26.112 0 47.232-21.12 47.232-47.232v-110.272c0-26.112-21.12-47.296-47.232-47.296h-110.272c-0.019 0-0.042 0-0.064 0-26.086 0-47.232 21.146-47.232 47.232 0 0.023 0 0.045 0 0.068v-0.004 110.272c0 26.048 21.12 47.232 47.296 47.232z" />
<glyph unicode="&#xe93c;" glyph-name="layout-grid-6" data-tags="layout-grid-6" horiz-adv-x="1600" d="M593.408 896h110.272c26.112 0 47.296-21.12 47.296-47.232v-110.336c-0.036-26.093-21.198-47.232-47.296-47.232h-110.272c-0.019 0-0.042 0-0.064 0-26.086 0-47.232 21.146-47.232 47.232 0 0 0 0 0 0v0 110.336c0 26.048 21.184 47.232 47.296 47.232zM866.496 896h110.272c26.048 0 47.232-21.12 47.232-47.232v-110.336c0-26.048-21.12-47.232-47.232-47.232h-110.272c-0.019 0-0.042 0-0.064 0-26.086 0-47.232 21.146-47.232 47.232 0 0 0 0 0 0v0 110.336c0 26.048 21.12 47.232 47.296 47.232zM593.408 622.912h110.272c26.112 0 47.296-21.12 47.296-47.232v-110.272c-0.036-26.106-21.19-47.26-47.293-47.296h-110.275c-0.019 0-0.042 0-0.064 0-26.086 0-47.232 21.146-47.232 47.232 0 0.023 0 0.045 0 0.068v-0.004 110.272c0 26.112 21.184 47.232 47.296 47.232zM866.496 622.912h110.272c26.048 0 47.232-21.12 47.232-47.232v-110.272c0-26.112-21.12-47.296-47.232-47.296h-110.272c-0.019 0-0.042 0-0.064 0-26.086 0-47.232 21.146-47.232 47.232 0 0.023 0 0.045 0 0.068v-0.004 110.272c0 26.112 21.12 47.232 47.296 47.232zM593.408 349.888h110.272c26.106-0.036 47.26-21.19 47.296-47.293v-110.275c0 0 0 0 0 0 0-26.086-21.146-47.232-47.232-47.232-0.022 0-0.045 0-0.067 0h-110.269c-0.019 0-0.042 0-0.064 0-26.086 0-47.232 21.146-47.232 47.232 0 0 0 0 0 0v0 110.272c0.036 26.106 21.19 47.26 47.293 47.296h0.003zM593.408 76.8h110.272c26.112 0 47.296-21.12 47.296-47.232v-110.272c-0.036-26.106-21.19-47.26-47.293-47.296h-110.275c-0.019 0-0.042 0-0.064 0-26.086 0-47.232 21.146-47.232 47.232 0 0.023 0 0.045 0 0.068v-0.004 110.272c0 26.048 21.184 47.232 47.296 47.232zM866.496 349.888h110.272c26.048 0 47.232-21.184 47.232-47.296v-110.272c0-26.112-21.12-47.232-47.232-47.232h-110.272c-0.019 0-0.042 0-0.064 0-26.086 0-47.232 21.146-47.232 47.232 0 0 0 0 0 0v0 110.272c0 26.112 21.12 47.296 47.296 47.296zM866.496 76.8h110.272c26.048 0 47.232-21.12 47.232-47.232v-110.272c0-26.112-21.12-47.296-47.232-47.296h-110.272c-0.019 0-0.042 0-0.064 0-26.086 0-47.232 21.146-47.232 47.232 0 0.023 0 0.045 0 0.068v-0.004 110.272c0 26.048 21.12 47.232 47.296 47.232zM1135.232 896h110.336c26.048 0 47.232-21.12 47.232-47.232v-110.336c0-26.048-21.12-47.232-47.232-47.232h-110.336c-26.086 0-47.232 21.146-47.232 47.232v0 110.336c0 26.048 21.12 47.232 47.232 47.232zM1408.32 896h110.272c26.112 0 47.296-21.12 47.296-47.232v-110.336c0-26.048-21.12-47.232-47.296-47.232h-110.272c-26.086 0-47.232 21.146-47.232 47.232v0 110.336c0 26.048 21.12 47.232 47.232 47.232zM1135.232 622.912h110.336c26.048 0 47.232-21.12 47.232-47.232v-110.272c0-26.112-21.12-47.296-47.232-47.296h-110.336c0 0 0 0 0 0-26.086 0-47.232 21.146-47.232 47.232 0 0.022 0 0.045 0 0.067v-0.003 110.272c0 26.112 21.12 47.232 47.232 47.232zM1408.32 622.912h110.272c26.112 0 47.296-21.12 47.296-47.232v-110.272c0-26.112-21.12-47.296-47.296-47.296h-110.272c0 0 0 0 0 0-26.086 0-47.232 21.146-47.232 47.232 0 0.022 0 0.045 0 0.067v-0.003 110.272c0 26.112 21.12 47.232 47.232 47.232zM1135.232 349.888h110.336c26.048 0 47.232-21.184 47.232-47.296v-110.272c0-26.112-21.12-47.232-47.232-47.232h-110.336c-26.086 0-47.232 21.146-47.232 47.232v0 110.272c0 26.112 21.12 47.296 47.232 47.296zM1135.232 76.8h110.336c26.048 0 47.232-21.12 47.232-47.232v-110.272c0-26.112-21.12-47.296-47.232-47.296h-110.336c0 0 0 0 0 0-26.086 0-47.232 21.146-47.232 47.232 0 0.022 0 0.045 0 0.067v-0.003 110.272c0 26.048 21.12 47.232 47.232 47.232zM1408.32 349.888h110.272c26.106-0.036 47.26-21.19 47.296-47.293v-110.275c0-26.112-21.12-47.232-47.296-47.232h-110.272c-26.086 0-47.232 21.146-47.232 47.232v0 110.272c0 26.112 21.12 47.296 47.232 47.296zM1408.32 76.8h110.272c26.112 0 47.296-21.12 47.296-47.232v-110.272c0-26.112-21.12-47.296-47.296-47.296h-110.272c0 0 0 0 0 0-26.086 0-47.232 21.146-47.232 47.232 0 0.022 0 0.045 0 0.067v-0.003 110.272c0 26.048 21.12 47.232 47.232 47.232zM320.32 896h110.272c26.112 0 47.296-21.12 47.296-47.232v-110.336c0-26.048-21.12-47.232-47.296-47.232h-110.272c-26.086 0-47.232 21.146-47.232 47.232v0 110.336c0 26.048 21.12 47.232 47.232 47.232zM320.32 622.912h110.272c26.112 0 47.296-21.12 47.296-47.232v-110.272c0-26.112-21.12-47.296-47.296-47.296h-110.272c0 0 0 0 0 0-26.086 0-47.232 21.146-47.232 47.232 0 0.022 0 0.045 0 0.067v-0.003 110.272c0 26.112 21.12 47.232 47.232 47.232zM320.32 349.888h110.272c26.106-0.036 47.26-21.19 47.296-47.293v-110.275c0-26.112-21.12-47.232-47.296-47.232h-110.272c-26.086 0-47.232 21.146-47.232 47.232v0 110.272c0 26.112 21.12 47.296 47.232 47.296zM320.32 76.8h110.272c26.112 0 47.296-21.12 47.296-47.232v-110.272c0-26.112-21.12-47.296-47.296-47.296h-110.272c0 0 0 0 0 0-26.086 0-47.232 21.146-47.232 47.232 0 0.022 0 0.045 0 0.067v-0.003 110.272c0 26.048 21.12 47.232 47.232 47.232zM47.296 896h110.272c26.112 0 47.232-21.12 47.232-47.232v-110.336c0-26.048-21.12-47.232-47.232-47.232h-110.272c-0.019 0-0.042 0-0.064 0-26.086 0-47.232 21.146-47.232 47.232 0 0 0 0 0 0v0 110.336c0 26.048 21.12 47.232 47.36 47.232zM47.296 622.912h110.272c26.112 0 47.232-21.12 47.232-47.232v-110.272c0-26.112-21.12-47.296-47.232-47.296h-110.272c-0.019 0-0.042 0-0.064 0-26.086 0-47.232 21.146-47.232 47.232 0 0.023 0 0.045 0 0.068v-0.004 110.272c0 26.112 21.12 47.232 47.296 47.232zM47.296 349.888h110.272c26.112 0 47.232-21.184 47.232-47.296v-110.272c0-26.112-21.12-47.232-47.232-47.232h-110.272c-0.019 0-0.042 0-0.064 0-26.086 0-47.232 21.146-47.232 47.232 0 0 0 0 0 0v0 110.272c0 26.112 21.12 47.296 47.296 47.296zM47.296 76.8h110.272c26.112 0 47.232-21.12 47.232-47.232v-110.272c0-26.112-21.12-47.296-47.232-47.296h-110.272c-0.019 0-0.042 0-0.064 0-26.086 0-47.232 21.146-47.232 47.232 0 0.023 0 0.045 0 0.068v-0.004 110.272c0 26.048 21.12 47.232 47.296 47.232z" />
<glyph unicode="&#xe93d;" glyph-name="circle-empty" data-tags="circle-empty" d="M512-64v0c-247.424 0-448 200.576-448 448s200.576 448 448 448v0c247.424 0 448-200.576 448-448s-200.576-448-448-448zM512-128c282.77 0 512 229.23 512 512s-229.23 512-512 512v0c-282.77 0-512-229.23-512-512s229.23-512 512-512v0z" />
<glyph unicode="&#xe93e;" glyph-name="circle-filled" data-tags="circle-filled" d="M1024 384c0-282.77-229.23-512-512-512s-512 229.23-512 512c0 282.77 229.23 512 512 512s512-229.23 512-512z" />
</font>
</defs>
</svg>
